<svg width="28" height="28" viewBox="0 0 28 28" fill="none" xmlns="http://www.w3.org/2000/svg">
<path d="M15.0703 14.4258L24.3047 5.19141C25.0078 4.5 24.6094 3.64453 23.6367 3.33984C21.4102 2.625 19.0078 2.42578 15.8672 2.61328L15.2461 1.95703C14.25 0.890625 12.832 0.890625 11.7773 1.92188C10.7578 2.97656 10.7344 4.42969 11.8125 5.39062L12.4688 5.98828C12.2695 9.09375 12.457 11.5078 13.1719 13.7695C13.4883 14.7539 14.332 15.1641 15.0703 14.4258ZM12.3164 3.70312L13.5586 2.44922L11.4609 0.375C11.1094 0.0234375 10.5703 0.0234375 10.2188 0.375C9.87891 0.714844 9.86719 1.25391 10.2188 1.60547L12.3164 3.70312ZM20.3672 13.6875C22.1016 13.6875 23.5312 12.2461 23.5312 10.5352C23.5312 9.78516 23.2617 9.05859 22.7344 8.48438L18.3164 12.9023C18.8906 13.418 19.6172 13.6875 20.3672 13.6875ZM5.21484 15.9727L14.1094 7.79297L12.8203 6.43359L3.9375 14.6016L5.21484 15.9727ZM4.82812 16.875C5.84766 16.875 6.65625 16.0781 6.65625 15.0469C6.65625 14.0273 5.84766 13.2188 4.82812 13.2188C3.79688 13.2188 3 14.0273 3 15.0469C3 16.0781 3.79688 16.875 4.82812 16.875ZM9.58594 21.0352L10.9219 19.7109L5.09766 13.9102L3.77344 15.2344L9.58594 21.0352ZM9.9375 22.2539C10.957 22.2539 11.7656 21.457 11.7656 20.4258C11.7656 19.4062 10.9453 18.5977 9.9375 18.5977C8.90625 18.5977 8.10938 19.4062 8.10938 20.4258C8.10938 21.457 8.90625 22.2539 9.9375 22.2539ZM8.98828 26.1328H10.875V20.4727H8.98828V26.1328ZM4.34766 27.7852H16.8164C17.25 27.7852 17.543 27.4688 17.543 27.0117C17.543 26.1328 16.7812 25.5117 15.5977 25.5117H5.56641C4.38281 25.5117 3.62109 26.1328 3.62109 27.0117C3.62109 27.4688 3.91406 27.7852 4.34766 27.7852Z" fill="black"/>
</svg>
