<svg width="31" height="28" viewBox="0 0 31 28" fill="none" xmlns="http://www.w3.org/2000/svg">
<g clip-path="url(#clip0_1899_26383)">
<path d="M0 6.52344C0 7.36719 0.679688 8.04688 1.52344 8.04688H28.4883C29.332 8.04688 30.0234 7.36719 30.0234 6.52344C30.0234 5.67969 29.332 5 28.4883 5H1.52344C0.679688 5 0 5.67969 0 6.52344ZM8.23828 20.6914H21.7734C26.1914 20.6914 28.4766 18.5352 28.4766 14.3398V9.64062H1.54688V14.3398C1.54688 18.5352 3.82031 20.6914 8.23828 20.6914ZM4.96875 23.3047C5.46094 23.4922 6.01172 23.2227 6.1875 22.7422L7.18359 19.9883L5.41406 19.3438L4.41797 22.0977C4.24219 22.5781 4.48828 23.1406 4.96875 23.3047ZM25.043 23.3047C25.5234 23.1406 25.7812 22.5781 25.6055 22.0977L24.6094 19.3438L22.8281 19.9883L23.8242 22.7422C24.0117 23.2227 24.5625 23.4922 25.043 23.3047Z" fill="currentColor"/>
</g>
<defs>
<clipPath id="clip0_1899_26383">
<rect width="30.0234" height="18.5039" fill="white" transform="translate(0 5)"/>
</clipPath>
</defs>
</svg>
