<svg width="28" height="28" viewBox="0 0 28 28" fill="none" xmlns="http://www.w3.org/2000/svg">
<path d="M13.0508 25.7812C15.5352 25.7812 17.3047 23.8125 17.3984 21.5391H22.3438C23.4453 21.5391 24.1133 20.9766 24.1133 20.1211C24.1133 18.9492 22.918 17.8945 21.9102 16.8516C21.1953 16.125 20.9258 14.6719 20.8789 13.4766C20.8789 13.2539 20.8789 13.0312 20.8672 12.8203C20.1992 12.9492 19.6016 12.9375 18.9922 12.5625C19.0039 12.9023 19.0156 13.2539 19.0273 13.6289C19.0625 15.7852 19.543 17.0625 20.3047 17.918C20.9258 18.5977 21.6172 19.2891 21.8281 19.6289V19.7695H4.27344V19.6289C4.48438 19.2891 5.1875 18.5977 5.79688 17.918C6.64062 16.9805 7.03906 15.4688 7.14453 13.1836C7.23828 8.0625 8.76172 6.43359 10.7656 5.88281C11.0586 5.8125 11.2227 5.67188 11.2344 5.36719C11.2695 4.40625 11.7617 3.73828 12.3945 3.52734C12.793 2.68359 13.6367 2.08594 14.6328 2.08594C14.7148 2.08594 14.7852 2.08594 14.8906 2.10938C14.8906 2.08594 14.8906 2.08594 14.8906 2.07422C14.3633 1.76953 13.7422 1.57031 13.0508 1.57031C11.3281 1.57031 10.0625 2.77734 9.67578 4.3125C6.55859 5.4375 5.36328 8.41406 5.28125 13.0312C5.1875 14.3789 4.97656 16.043 4.20312 16.8516C3.18359 17.8945 2 18.9492 2 20.1211C2 20.9766 2.65625 21.5391 3.76953 21.5391H8.71484C8.80859 23.8008 10.5781 25.7812 13.0508 25.7812ZM13.0508 24.1289C11.6445 24.1289 10.625 23.1328 10.543 21.5391H15.5703C15.4766 23.1328 14.4688 24.1289 13.0508 24.1289ZM14.6328 7.07812C15.0195 7.07812 15.3125 6.78516 15.3125 6.43359V4.65234C15.3125 4.27734 15.0195 3.98438 14.6328 3.98438C14.2812 3.98438 13.9883 4.27734 13.9883 4.65234V6.43359C13.9883 6.78516 14.2812 7.07812 14.6328 7.07812ZM17.3984 9.04688C17.7617 9.04688 18.0547 8.76562 18.0547 8.37891V2.68359C18.0547 2.32031 17.7617 2.02734 17.3984 2.02734C17.0234 2.02734 16.7422 2.32031 16.7422 2.68359V8.37891C16.7422 8.76562 17.0234 9.04688 17.3984 9.04688ZM20.1406 11.0742C20.5156 11.0742 20.8086 10.793 20.8086 10.418V0.679688C20.8086 0.292969 20.5156 0 20.1406 0C19.7773 0 19.4844 0.292969 19.4844 0.679688V10.418C19.4844 10.8047 19.7656 11.0742 20.1406 11.0742ZM22.8828 9.91406C23.2578 9.91406 23.5508 9.62109 23.5508 9.24609V1.81641C23.5508 1.46484 23.2578 1.17188 22.8828 1.17188C22.5195 1.17188 22.2383 1.46484 22.2383 1.81641V9.24609C22.2383 9.62109 22.5195 9.91406 22.8828 9.91406ZM25.6367 7.69922C26.0234 7.69922 26.3047 7.41797 26.3047 7.04297V4.03125C26.3047 3.65625 26.0234 3.375 25.6367 3.375C25.2734 3.375 24.9805 3.66797 24.9805 4.03125V7.04297C24.9805 7.40625 25.2734 7.69922 25.6367 7.69922Z" fill="currentColor"/>
</svg>
