<svg width="28" height="28" viewBox="0 0 28 28" fill="none" xmlns="http://www.w3.org/2000/svg">
<g clip-path="url(#clip0_1899_26423)">
<path d="M6.70703 25.1602H12.7188V0H6.70703C5.08984 0 4 1.11328 4 2.80078V22.3594C4 24.0469 5.08984 25.1602 6.70703 25.1602ZM9.85938 14.25C9.17969 14.25 8.61719 13.6992 8.61719 13.0195C8.61719 12.3281 9.17969 11.7773 9.85938 11.7773C10.5391 11.7773 11.1016 12.3281 11.1016 13.0195C11.1016 13.6992 10.5391 14.25 9.85938 14.25ZM20.3359 25.1602C21.9531 25.1602 23.043 24.0469 23.043 22.3594V2.80078C23.043 1.11328 21.9531 0 20.3359 0H14.3242V25.1602H20.3359ZM17.1719 14.25C16.4922 14.25 15.9297 13.6992 15.9297 13.0195C15.9297 12.3281 16.4922 11.7773 17.1719 11.7773C17.8516 11.7773 18.4141 12.3281 18.4141 13.0195C18.4141 13.6992 17.8516 14.25 17.1719 14.25ZM7.43359 27.3281C8.01953 27.3281 8.40625 26.9297 8.40625 26.3438V23.9883H6.46094V26.3438C6.46094 26.9297 6.84766 27.3281 7.43359 27.3281ZM19.6094 27.3281C20.1953 27.3281 20.582 26.9297 20.582 26.3438V23.9883H18.6367V26.3438C18.6367 26.9297 19.0234 27.3281 19.6094 27.3281Z" fill="currentColor"/>
</g>
<defs>
<clipPath id="clip0_1899_26423">
<rect width="19.043" height="27.3398" fill="white" transform="translate(4)"/>
</clipPath>
</defs>
</svg>
