<svg width="28" height="28" viewBox="0 0 28 28" fill="none" xmlns="http://www.w3.org/2000/svg">
<g clip-path="url(#clip0_1899_26204)">
<path d="M14.0508 6.17578C16.8164 6.17578 19.0898 4.59375 19.5234 2.30859C19.6758 1.46484 19.2773 0.84375 18.4453 0.621094C15.9492 -0.0468751 12.1523 -0.0468751 9.66797 0.621094C8.83594 0.84375 8.4375 1.46484 8.58984 2.30859C9.02344 4.59375 11.2852 6.17578 14.0508 6.17578ZM13.1133 12.7266H15V5.47266H13.1133V12.7266ZM14.0508 17.0977C18.3867 17.0977 22.0664 17.8945 24.3047 19.3125C23.25 17.1797 21.2344 15.1055 18.8555 13.9336C18.1758 11.6602 16.2305 10.2422 14.0508 10.2422C11.8711 10.2422 9.92578 11.6602 9.24609 13.9336C6.86719 15.1055 4.85156 17.1797 3.79688 19.3125C6.03516 17.8945 9.71484 17.0977 14.0508 17.0977ZM14.0508 27.2227C20.6836 27.2227 25.1016 25.3828 25.1016 22.6289C25.1016 20.1094 19.793 18.5742 14.0508 18.5742C8.30859 18.5742 3 20.0859 3 22.6289C3 25.3828 7.41797 27.2227 14.0508 27.2227ZM14.0508 23.4727C11.8477 23.4727 9.92578 22.1719 9.85547 20.4727C11.1328 20.2617 12.5625 20.1328 14.0508 20.1328C15.5273 20.1328 16.9688 20.2617 18.2461 20.4727C18.1641 22.1719 16.2891 23.4727 14.0508 23.4727Z" fill="currentColor"/>
</g>
<defs>
<clipPath id="clip0_1899_26204">
<rect width="22.1016" height="27.2227" fill="white" transform="translate(3)"/>
</clipPath>
</defs>
</svg>
