<svg width="28" height="28" viewBox="0 0 28 28" fill="none" xmlns="http://www.w3.org/2000/svg">
<g clip-path="url(#clip0_1899_17965)">
<path d="M13.9531 25.9062C20.4922 25.9062 25.9062 20.4805 25.9062 13.9531C25.9062 7.41406 20.4805 2 13.9414 2C7.41406 2 2 7.41406 2 13.9531C2 20.4805 7.42578 25.9062 13.9531 25.9062ZM10.0156 18.875C9.47656 18.875 9.05469 18.4414 9.05469 17.9023C9.05469 17.6445 9.14844 17.3984 9.33594 17.2227L12.582 13.9648L9.33594 10.7188C9.14844 10.5312 9.05469 10.2969 9.05469 10.0391C9.05469 9.48828 9.47656 9.07812 10.0156 9.07812C10.2852 9.07812 10.4961 9.17188 10.6836 9.34766L13.9531 12.6055L17.2461 9.33594C17.4453 9.13672 17.6562 9.05469 17.9141 9.05469C18.4531 9.05469 18.8867 9.47656 18.8867 10.0156C18.8867 10.2852 18.8047 10.4961 18.5938 10.707L15.3359 13.9648L18.582 17.2109C18.7812 17.3867 18.875 17.6328 18.875 17.9023C18.875 18.4414 18.4414 18.875 17.8906 18.875C17.6211 18.875 17.375 18.7812 17.1992 18.5938L13.9531 15.3359L10.7188 18.5938C10.5312 18.7812 10.2852 18.875 10.0156 18.875Z" fill="currentColor"/>
</g>
<defs>
<clipPath id="clip0_1899_17965">
<rect width="23.9062" height="23.918" fill="white" transform="translate(2 2)"/>
</clipPath>
</defs>
</svg>
