<svg width="28" height="28" viewBox="0 0 28 28" fill="none" xmlns="http://www.w3.org/2000/svg">
<g clip-path="url(#clip0_1899_19269)">
<path d="M2 11.3338C2 14.369 3.10156 17.1815 5.04688 19.2909C5.49219 19.7831 6.14844 19.7831 6.52344 19.3495C6.89844 18.9276 6.78125 18.3768 6.35938 17.8963C4.78906 16.1503 3.91016 13.8534 3.91016 11.3338C3.91016 8.81431 4.78906 6.51744 6.35938 4.77134C6.78125 4.29088 6.89844 3.74009 6.52344 3.31822C6.14844 2.88463 5.49219 2.88463 5.04688 3.37681C3.10156 5.48619 2 8.29869 2 11.3338ZM6.93359 11.3338C6.93359 13.0565 7.51953 14.662 8.53906 15.9276C8.94922 16.4667 9.65234 16.4549 10.0391 16.0096C10.4141 15.5878 10.2617 15.0604 9.88672 14.5565C9.18359 13.6893 8.84375 12.5526 8.84375 11.3338C8.84375 10.1151 9.21875 9.01353 9.88672 8.11119C10.25 7.59556 10.4141 7.07994 10.0391 6.65806C9.65234 6.21275 8.94922 6.20103 8.53906 6.74009C7.51953 8.00572 6.93359 9.61119 6.93359 11.3338ZM12.3359 11.3338C12.3359 12.1776 12.8164 12.9042 13.543 13.2323V23.7674C13.543 24.3651 13.9062 24.7753 14.4453 24.7753C14.9961 24.7753 15.3359 24.3768 15.3359 23.7674V13.2323C16.0508 12.9042 16.543 12.1659 16.543 11.3338C16.543 10.162 15.6172 9.21275 14.4453 9.21275C13.2617 9.21275 12.3359 10.162 12.3359 11.3338ZM18.8398 16.0096C19.2266 16.4549 19.9297 16.4667 20.3398 15.9276C21.3594 14.662 21.9453 13.0565 21.9453 11.3338C21.9453 9.61119 21.3594 8.00572 20.3398 6.74009C19.9297 6.20103 19.2266 6.21275 18.8398 6.65806C18.4648 7.07994 18.6289 7.59556 18.9922 8.11119C19.6602 9.01353 20.0352 10.1151 20.0352 11.3338C20.0352 12.5526 19.6953 13.6893 18.9922 14.5565C18.6172 15.0604 18.4648 15.5878 18.8398 16.0096ZM22.3555 19.3495C22.7305 19.7831 23.3867 19.7831 23.832 19.2909C25.7773 17.1815 26.8789 14.369 26.8789 11.3338C26.8789 8.29869 25.7773 5.48619 23.832 3.37681C23.3867 2.88463 22.7305 2.88463 22.3555 3.31822C21.9805 3.74009 22.0977 4.29088 22.5195 4.77134C24.0898 6.51744 24.9688 8.81431 24.9688 11.3338C24.9688 13.8534 24.0898 16.1503 22.5195 17.8963C22.0977 18.3768 21.9805 18.9276 22.3555 19.3495Z" fill="currentColor"/>
</g>
<defs>
<clipPath id="clip0_1899_19269">
<rect width="24.8789" height="21.9528" fill="currentColor" transform="translate(2 3)"/>
</clipPath>
</defs>
</svg>
