<svg width="29" height="28" viewBox="0 0 29 28" fill="none" xmlns="http://www.w3.org/2000/svg">
<g clip-path="url(#clip0_1899_26439)">
<path d="M3.49219 25.0273H24.7852C27.1055 25.0273 28.2773 23.8438 28.2773 21.5703V5.46875C28.2773 3.19531 27.1055 2.01172 24.7852 2.01172H3.49219C1.18359 2.01172 0 3.19531 0 5.46875V21.5703C0 23.8438 1.18359 25.0273 3.49219 25.0273ZM7.20703 12.6055C5.21484 12.6055 3.58594 10.9648 3.58594 8.97266C3.58594 6.98047 5.21484 5.33984 7.20703 5.33984C9.21094 5.33984 10.8398 6.98047 10.8398 8.97266C10.8398 10.9648 9.21094 12.6055 7.20703 12.6055ZM16.582 12.6055C14.5781 12.6055 12.9492 10.9648 12.9492 8.97266C12.9492 6.98047 14.5781 5.33984 16.582 5.33984C18.5859 5.33984 20.2031 6.98047 20.2031 8.97266C20.2031 10.9648 18.5859 12.6055 16.582 12.6055ZM7.20703 21.6641C5.21484 21.6641 3.58594 20.0352 3.58594 18.0312C3.58594 16.0391 5.21484 14.4102 7.20703 14.4102C9.21094 14.4102 10.8398 16.0391 10.8398 18.0312C10.8398 20.0352 9.21094 21.6641 7.20703 21.6641ZM16.582 21.6641C14.5781 21.6641 12.9492 20.0352 12.9492 18.0312C12.9492 16.0391 14.5781 14.4102 16.582 14.4102C18.5859 14.4102 20.2031 16.0391 20.2031 18.0312C20.2031 20.0352 18.5859 21.6641 16.582 21.6641ZM24.0352 9.35938C23.4375 9.35938 22.9688 8.89062 22.9688 8.29297C22.9688 7.71875 23.4375 7.23828 24.0352 7.23828C24.6211 7.23828 25.0898 7.71875 25.0898 8.29297C25.0898 8.89062 24.6211 9.35938 24.0352 9.35938ZM24.0352 12.8281C23.4375 12.8281 22.9688 12.3711 22.9688 11.7617C22.9688 11.1875 23.4375 10.707 24.0352 10.707C24.6211 10.707 25.0898 11.1875 25.0898 11.7617C25.0898 12.3711 24.6211 12.8281 24.0352 12.8281ZM24.0352 16.3203C23.4375 16.3203 22.9688 15.8398 22.9688 15.2539C22.9688 14.6562 23.4375 14.1992 24.0352 14.1992C24.6211 14.1992 25.0898 14.6562 25.0898 15.2539C25.0898 15.8398 24.6211 16.3203 24.0352 16.3203ZM24.0352 19.7891C23.4375 19.7891 22.9688 19.3086 22.9688 18.7227C22.9688 18.1367 23.4375 17.668 24.0352 17.668C24.6211 17.668 25.0898 18.1367 25.0898 18.7227C25.0898 19.3086 24.6211 19.7891 24.0352 19.7891ZM7.20703 11.4453C8.57812 11.4453 9.69141 10.3438 9.69141 8.97266C9.69141 7.60156 8.57812 6.5 7.20703 6.5C5.84766 6.5 4.74609 7.60156 4.74609 8.97266C4.74609 10.3438 5.84766 11.4453 7.20703 11.4453ZM7.20703 10.8828C6.15234 10.8828 5.32031 10.0508 5.32031 8.97266C5.32031 7.89453 6.15234 7.07422 7.20703 7.07422C8.28516 7.07422 9.10547 7.89453 9.10547 8.97266C9.10547 10.0508 8.28516 10.8828 7.20703 10.8828ZM16.582 11.4453C17.9531 11.4453 19.0547 10.3438 19.0547 8.97266C19.0547 7.60156 17.9531 6.5 16.582 6.5C15.2227 6.5 14.1094 7.60156 14.1094 8.97266C14.1094 10.3438 15.2227 11.4453 16.582 11.4453ZM16.582 10.8828C15.5039 10.8828 14.6719 10.0508 14.6719 8.97266C14.6719 7.89453 15.5039 7.07422 16.582 7.07422C17.6484 7.07422 18.4805 7.89453 18.4805 8.97266C18.4805 10.0508 17.6484 10.8828 16.582 10.8828ZM7.20703 20.5039C8.57812 20.5039 9.69141 19.4141 9.69141 18.0312C9.69141 16.6602 8.57812 15.5703 7.20703 15.5703C5.84766 15.5703 4.74609 16.6602 4.74609 18.0312C4.74609 19.4141 5.84766 20.5039 7.20703 20.5039ZM7.20703 19.9414C6.15234 19.9414 5.32031 19.1094 5.32031 18.0312C5.32031 16.9648 6.15234 16.1328 7.20703 16.1328C8.28516 16.1328 9.10547 16.9648 9.10547 18.0312C9.10547 19.1094 8.28516 19.9414 7.20703 19.9414ZM16.582 20.5039C17.9531 20.5039 19.0547 19.4141 19.0547 18.0312C19.0547 16.6602 17.9531 15.5703 16.582 15.5703C15.2227 15.5703 14.1094 16.6602 14.1094 18.0312C14.1094 19.4141 15.2227 20.5039 16.582 20.5039ZM16.582 19.9414C15.5039 19.9414 14.6719 19.1094 14.6719 18.0312C14.6719 16.9648 15.5039 16.1328 16.582 16.1328C17.6484 16.1328 18.4805 16.9648 18.4805 18.0312C18.4805 19.1094 17.6484 19.9414 16.582 19.9414Z" fill="currentColor"/>
</g>
<defs>
<clipPath id="clip0_1899_26439">
<rect width="28.2773" height="23.0273" fill="white" transform="translate(0 2)"/>
</clipPath>
</defs>
</svg>
