<svg width="28" height="28" viewBox="0 0 28 28" fill="none" xmlns="http://www.w3.org/2000/svg">
<g clip-path="url(#clip0_1899_19272)">
<path d="M6.52344 19.2363C6.89844 18.8145 6.78125 18.2637 6.35938 17.7832C4.78906 16.0371 3.91016 13.7402 3.91016 11.2207C3.91016 9.14648 4.50781 7.24805 5.58594 5.66602L4.21484 4.29492C2.78516 6.24023 2 8.64258 2 11.2207C2 14.2559 3.10156 17.0684 5.04688 19.1777C5.49219 19.6699 6.14844 19.6699 6.52344 19.2363ZM10.0391 15.8965C10.4141 15.4746 10.2617 14.9473 9.88672 14.4434C9.18359 13.5762 8.84375 12.4395 8.84375 11.2207C8.84375 10.541 8.98438 9.89648 9.23047 9.29883L7.76562 7.83398C7.21484 8.85352 6.93359 10.0137 6.93359 11.2207C6.93359 12.9434 7.51953 14.5488 8.53906 15.8145C8.94922 16.3535 9.65234 16.3418 10.0391 15.8965ZM14.4453 24.6621C14.9961 24.6621 15.3359 24.2637 15.3359 23.6543V15.416L13.543 13.623V23.6543C13.543 24.252 13.9062 24.6621 14.4453 24.6621ZM21.2305 14.3613C21.6992 13.4121 21.9453 12.3457 21.9453 11.2207C21.9453 9.49805 21.3594 7.89258 20.3398 6.62695C19.9297 6.08789 19.2266 6.09961 18.8398 6.54492C18.4648 6.9668 18.6289 7.48242 18.9922 7.99805C19.6602 8.90039 20.0352 10.002 20.0352 11.2207C20.0352 11.8066 19.9414 12.3691 19.7305 12.873L21.2305 14.3613ZM24.8164 17.959C26.1406 16.0254 26.8789 13.7051 26.8789 11.2207C26.8789 8.18555 25.7773 5.37305 23.832 3.26367C23.3867 2.77148 22.7305 2.77148 22.3555 3.20508C21.9805 3.62695 22.0977 4.17773 22.5195 4.6582C24.0898 6.4043 24.9688 8.70117 24.9688 11.2207C24.9688 13.2012 24.418 15.0176 23.4219 16.5645L24.8164 17.959ZM24.6758 22.5645C25.0273 22.916 25.6016 22.916 25.9531 22.5645C26.293 22.2012 26.3047 21.6387 25.9531 21.2871L4.92969 0.263672C4.57812 -0.0878907 3.99219 -0.0878907 3.64062 0.263672C3.30078 0.603516 3.30078 1.20117 3.64062 1.54102L24.6758 22.5645Z" fill="currentColor"/>
</g>
<defs>
<clipPath id="clip0_1899_19272">
<rect width="24.8789" height="27.7266" fill="currentColor" transform="translate(2)"/>
</clipPath>
</defs>
</svg>
