<svg width="28" height="28" viewBox="0 0 28 28" fill="none" xmlns="http://www.w3.org/2000/svg">
<path d="M3 8.00211H23.332V4.89665C23.332 3.20915 22.2422 2.09586 20.625 2.09586H5.71875C4.08984 2.09586 3 3.20915 3 4.89665V8.00211ZM7.24219 6.78336C6.65625 6.78336 6.17578 6.29118 6.17578 5.71696C6.17578 5.1193 6.65625 4.65055 7.24219 4.65055C7.82812 4.65055 8.29688 5.1193 8.29688 5.71696C8.29688 6.29118 7.82812 6.78336 7.24219 6.78336ZM10.3242 6.78336C9.73828 6.78336 9.26953 6.29118 9.26953 5.71696C9.26953 5.1193 9.73828 4.65055 10.3242 4.65055C10.9102 4.65055 11.3789 5.1193 11.3789 5.71696C11.3789 6.29118 10.9102 6.78336 10.3242 6.78336ZM16.6406 6.32633C16.2773 6.32633 16.043 6.08024 16.043 5.71696C16.043 5.35368 16.2773 5.09586 16.6406 5.09586H19.5234C19.8984 5.09586 20.1328 5.35368 20.1328 5.71696C20.1328 6.08024 19.8984 6.32633 19.5234 6.32633H16.6406ZM16.3711 27.6662C16.7227 27.9006 17.2734 27.8888 17.5898 27.3732C17.9297 26.7521 18.1289 26.0256 18.1289 25.3224C18.1289 22.7677 16.1719 21.5138 16.1719 19.6271C16.1719 19.1467 16.2656 18.8068 16.5586 18.3146C16.793 17.9045 16.6055 17.4709 16.2891 17.2717C15.9375 17.049 15.3984 17.0842 15.1172 17.5763C14.7539 18.1857 14.5664 18.9123 14.5664 19.6271C14.5664 22.1349 16.5117 23.3888 16.5117 25.3224C16.5117 25.8029 16.4297 26.1193 16.1367 26.6232C15.8906 27.0451 16.1016 27.4787 16.3711 27.6662ZM19.7695 27.6545C20.1445 27.9006 20.6953 27.8654 20.9766 27.3615C21.3281 26.7404 21.5273 26.0256 21.5273 25.3224C21.5273 22.756 19.5703 21.5021 19.5703 19.6154C19.5703 19.1467 19.6641 18.8068 19.9453 18.3029C20.1914 17.8927 19.9922 17.4709 19.6758 17.2717C19.3359 17.0607 18.7852 17.0842 18.5039 17.5646C18.1523 18.1857 17.9648 18.9006 17.9648 19.6154C17.9648 22.1349 19.9102 23.3771 19.9102 25.3224C19.9102 25.7912 19.8281 26.1076 19.5469 26.6115C19.3008 27.0451 19.4883 27.467 19.7695 27.6545ZM23.168 27.6427C23.543 27.8888 24.0938 27.8537 24.375 27.3498C24.7266 26.7287 24.9258 26.0138 24.9258 25.3107C24.9258 22.7443 22.9688 21.4904 22.9688 19.6037C22.9688 19.1349 23.0625 18.7951 23.3438 18.2912C23.5898 17.881 23.3906 17.4592 23.0742 17.2599C22.7227 17.049 22.1836 17.0724 21.9023 17.5529C21.5391 18.174 21.3633 18.8888 21.3633 19.6037C21.3633 22.1232 23.3086 23.3654 23.3086 25.3107C23.3086 25.7795 23.2266 26.0959 22.9336 26.5998C22.6875 27.0334 22.8867 27.4552 23.168 27.6427ZM8.83594 21.9709H13.3242C13.1016 21.3263 12.9023 20.5646 12.9023 19.6271C12.9023 17.7287 13.8164 15.467 15.8438 15.467C16.6406 15.467 17.2734 15.8654 17.543 16.217C17.6484 16.0529 17.7891 15.9123 17.9648 15.8302V14.0021C17.9648 13.7092 17.7773 13.5217 17.4961 13.5217H8.83594C8.55469 13.5217 8.36719 13.7092 8.36719 14.0021V21.4904C8.36719 21.7834 8.55469 21.9709 8.83594 21.9709ZM5.71875 26.7052H14.4023C14.5078 26.2599 14.8477 25.8849 14.8477 25.3224C14.8477 24.8185 14.3203 24.2326 13.8281 23.2717H8.625C7.69922 23.2717 7.06641 22.6388 7.06641 21.7013V13.7912C7.06641 12.8537 7.69922 12.2209 8.625 12.2209H17.707C18.6328 12.2209 19.2773 12.8537 19.2773 13.7912V15.4787C19.9922 15.4904 20.4609 15.7717 20.918 16.2052C21.5391 15.5959 22.4531 15.2795 23.332 15.5607V9.59586H3V23.9045C3 25.592 4.08984 26.7052 5.71875 26.7052Z" fill="currentColor"/>
</svg>
