<svg width="30" height="28" viewBox="0 0 30 28" fill="none" xmlns="http://www.w3.org/2000/svg">
<path d="M1.66406 19.7539C2.61328 19.7539 3.33984 19.0273 3.33984 18.1016V9.24219C3.33984 8.30469 2.61328 7.56641 1.66406 7.56641C0.726562 7.56641 0 8.30469 0 9.24219V18.1016C0 19.0273 0.726562 19.7539 1.66406 19.7539ZM7.23047 22.3438C8.78906 22.3438 9.87891 21.3008 9.87891 19.8242V7.53125C9.87891 6.04297 8.78906 5 7.23047 5C5.68359 5 4.59375 6.04297 4.59375 7.53125V19.8242C4.59375 21.3008 5.68359 22.3438 7.23047 22.3438ZM11.2383 15.9336H18.5156V11.4102H11.2383V15.9336ZM22.5234 22.3438C24.082 22.3438 25.1719 21.3008 25.1719 19.8242V7.53125C25.1719 6.04297 24.082 5 22.5234 5C20.9766 5 19.8867 6.04297 19.8867 7.53125V19.8242C19.8867 21.3008 20.9766 22.3438 22.5234 22.3438ZM27.9727 19.7539C28.9102 19.7539 29.6484 19.0273 29.6484 18.1016V9.24219C29.6484 8.30469 28.9102 7.56641 27.9727 7.56641C27.0352 7.56641 26.3086 8.30469 26.3086 9.24219V18.1016C26.3086 19.0273 27.0352 19.7539 27.9727 19.7539Z" fill="currentColor"/>
</svg>
