<svg width="28" height="29" viewBox="0 0 28 29" fill="none" xmlns="http://www.w3.org/2000/svg">
<path d="M10.0164 27.1758C11.0008 27.1758 11.6102 26.625 11.5985 25.6641L11.3641 12.5039C11.3641 12.0938 11.5399 11.7891 11.9032 11.625C13.45 10.9453 14.118 10.2305 14.036 8.17969L13.7078 0.984375C13.6844 0.46875 13.3797 0.175781 12.8993 0.175781C12.4422 0.175781 12.161 0.480469 12.161 1.00781L12.243 8.00391C12.243 8.41406 11.9852 8.67188 11.5985 8.67188C11.2 8.67188 10.9188 8.42578 10.9188 8.03906L10.8016 0.796875C10.7899 0.292969 10.4969 0 10.0164 0C9.53597 0 9.25472 0.292969 9.243 0.796875L9.12581 8.03906C9.12581 8.42578 8.84456 8.67188 8.44613 8.67188C8.05941 8.67188 7.78988 8.41406 7.78988 8.00391L7.87191 1.00781C7.87191 0.480469 7.60238 0.175781 7.13363 0.175781C6.65316 0.175781 6.34847 0.46875 6.32503 0.984375L6.00863 8.17969C5.91488 10.2305 6.58284 10.9453 8.12972 11.625C8.493 11.7891 8.66878 12.0938 8.66878 12.5039L8.44613 25.6641C8.43441 26.625 9.03206 27.1758 10.0164 27.1758ZM19.1805 16.957L18.9344 25.6055C18.8993 26.625 19.5203 27.1758 20.493 27.1758C21.4891 27.1758 22.0985 26.6719 22.0985 25.7344V0.878906C22.0985 0.28125 21.6883 0 21.2664 0C20.8211 0 20.5282 0.234375 20.1532 0.785156C18.2664 3.43359 17.0243 8.39062 17.0243 13.0781V13.6523C17.0243 14.4609 17.3172 15.0586 17.9032 15.4453L18.5946 15.9141C19.0164 16.207 19.2039 16.5352 19.1805 16.957Z" fill="currentColor"/>
</svg>
