<svg width="37" height="28" viewBox="0 0 37 28" fill="none" xmlns="http://www.w3.org/2000/svg">
<path d="M0 15.1133C0 21.3711 5.88281 25.543 14.7773 25.543C23.6836 25.543 29.5664 21.3711 29.5664 15.1133C29.5664 12.4883 23.4844 10.3555 14.7773 10.3555C6.08203 10.3555 0 12.4883 0 15.1133ZM1.88672 15.1133C1.88672 13.8477 8.02734 12.125 14.7773 12.125C21.5273 12.125 27.6797 13.8477 27.6797 15.1133C27.6797 16.332 21.9141 18.0664 14.7773 18.0664C7.64062 18.0664 1.88672 16.332 1.88672 15.1133ZM27.0938 13.8359L34.8281 9.10157C38.0625 7.13282 35.0625 2.38673 31.125 5.21095L22.0898 11.7148L27.0938 13.8359ZM7.96875 18.2305L20.5898 18.2773C20.6016 15.8398 18.5977 14.2461 16.2891 14.2461C14.7656 14.2461 13.4297 14.9258 12.6445 15.9805C12.2344 15.8398 11.8594 15.7812 11.4023 15.7812C9.69141 15.7812 8.27344 16.8477 7.96875 18.2305Z" fill="currentColor"/>
</svg>
