<svg width="35" height="28" viewBox="0 0 35 28" fill="none" xmlns="http://www.w3.org/2000/svg">
<path d="M0.9375 26.8672C1.46484 26.8672 1.88672 26.4453 1.88672 25.9297V4.50781C1.88672 4.13281 2.13281 3.88672 2.48438 3.88672H31.7578C32.1094 3.88672 32.3555 4.13281 32.3555 4.50781V25.9297C32.3555 26.4453 32.7773 26.8672 33.3047 26.8672C33.8203 26.8672 34.2422 26.4453 34.2422 25.9297V4.39062C34.2422 2.96094 33.2695 2 31.793 2H2.44922C0.984375 2 0 2.96094 0 4.39062V25.9297C0 26.4453 0.421875 26.8672 0.9375 26.8672ZM3.65625 26.457H30.5977C30.8086 26.457 30.9844 26.2695 30.9844 26.0586V5.64453C30.9844 5.42188 30.8086 5.24609 30.5977 5.24609H3.65625C3.43359 5.24609 3.25781 5.42188 3.25781 5.64453V26.0586C3.25781 26.2695 3.43359 26.457 3.65625 26.457ZM5.26172 11.7031C5.02734 11.7031 4.85156 11.5273 4.85156 11.293V7.14453C4.85156 6.91016 5.02734 6.72266 5.26172 6.72266H9.49219C9.72656 6.72266 9.91406 6.91016 9.91406 7.14453V11.293C9.91406 11.5273 9.72656 11.7031 9.49219 11.7031H5.26172ZM11.7891 11.7031C11.5547 11.7031 11.3672 11.5273 11.3672 11.293V7.14453C11.3672 6.91016 11.5547 6.72266 11.7891 6.72266H16.0078C16.2422 6.72266 16.4297 6.91016 16.4297 7.14453V11.293C16.4297 11.5273 16.2422 11.7031 16.0078 11.7031H11.7891ZM18.293 11.7031C18.0586 11.7031 17.8828 11.5273 17.8828 11.293V7.14453C17.8828 6.91016 18.0586 6.72266 18.293 6.72266H22.5C22.7227 6.72266 22.9102 6.91016 22.9102 7.14453V11.293C22.9102 11.5273 22.7227 11.7031 22.5938 11.7031H18.293ZM24.7734 11.7031C24.5391 11.7031 24.3633 11.5273 24.3633 11.293V7.14453C24.3633 6.91016 24.5391 6.72266 24.7734 6.72266H28.9805C29.2148 6.72266 29.3906 6.91016 29.3906 7.14453V11.293C29.3906 11.5273 29.2148 11.7031 29.0742 11.7031H24.7734ZM14.6016 24.4766C14.2617 24.4766 14.0273 24.2422 14.0273 23.9141C14.0273 23.5742 14.2617 23.3398 14.6016 23.3398H19.6523C19.9805 23.3398 20.2148 23.5742 20.2148 23.9141C20.2148 24.2422 19.9805 24.4766 19.6523 24.4766H14.6016Z" fill="currentColor"/>
</svg>
