<svg width="80" height="80" viewBox="0 0 80 80" fill="none" xmlns="http://www.w3.org/2000/svg">
<circle cx="40" cy="40" r="40" fill="#1B1B1B"/>
<g filter="url(#filter0_i_2021_10)">
<circle cx="40" cy="40" r="30" fill="#1B1B1B"/>
</g>
<circle cx="40" cy="40" r="29.5" stroke="#343434"/>
<g clip-path="url(#clip0_2021_10)">
<path d="M29.6797 50.3203H42.3242C44.7852 50.3203 46.0039 49.1016 46.0039 46.6875V33.6328C46.0039 31.2188 44.7852 30 42.3242 30H29.6797C27.2305 30 26 31.207 26 33.6328V46.6875C26 49.1016 27.2305 50.3203 29.6797 50.3203ZM29.7031 48.4336C28.5312 48.4336 27.8867 47.8008 27.8867 46.582V33.7266C27.8867 32.5195 28.5312 31.8867 29.7031 31.8867H42.3008C43.4492 31.8867 44.1172 32.5195 44.1172 33.7266V46.582C44.1172 47.8008 43.4492 48.4336 42.3008 48.4336H29.7031ZM35.457 40.6992C35.8555 40.6992 36.1719 40.3945 36.1719 39.9961V34.4531C36.1719 34.0547 35.8555 33.75 35.457 33.75C35.0586 33.75 34.7539 34.0547 34.7539 34.4531V39.9961C34.7539 40.3945 35.0586 40.6992 35.457 40.6992ZM38.4336 40.6992C38.832 40.6992 39.1484 40.3945 39.1484 39.9961V34.4531C39.1484 34.0547 38.832 33.75 38.4336 33.75C38.0352 33.75 37.7305 34.0547 37.7305 34.4531V39.9961C37.7305 40.3945 38.0352 40.6992 38.4336 40.6992ZM41.4219 40.6992C41.8203 40.6992 42.125 40.3945 42.125 39.9961V34.4531C42.125 34.0547 41.8203 33.75 41.4219 33.75C41.0234 33.75 40.707 34.0547 40.707 34.4531V39.9961C40.707 40.3945 41.0234 40.6992 41.4219 40.6992ZM48.2773 40.8164C48.5938 41.1797 49.1914 41.2031 49.543 40.7344C50.293 39.75 50.7383 38.5312 50.7383 37.2188C50.7383 35.9062 50.293 34.6758 49.543 33.7031C49.1914 33.2344 48.6055 33.2461 48.2891 33.6094C47.9492 33.9609 48.0781 34.3945 48.3828 34.8164C48.8867 35.5313 49.1328 36.3398 49.1328 37.2188C49.1328 38.0859 48.8867 38.9062 48.3828 39.6211C48.0898 40.0312 47.9492 40.4648 48.2773 40.8164ZM50.9609 43.3477C51.2773 43.7227 51.8398 43.7227 52.2148 43.3008C53.6797 41.6602 54.4766 39.5391 54.4766 37.2188C54.4766 34.8984 53.6797 32.7656 52.2148 31.125C51.8516 30.7148 51.3008 30.7148 50.9844 31.0664C50.6562 31.4297 50.7383 31.8867 51.0898 32.2969C52.2617 33.6328 52.8711 35.3438 52.8711 37.2188C52.8711 39.082 52.2617 40.8047 51.0898 42.1289C50.7383 42.5391 50.6562 42.9844 50.9609 43.3477Z" fill="white"/>
</g>
<defs>
<filter id="filter0_i_2021_10" x="10" y="10" width="60" height="60" filterUnits="userSpaceOnUse" color-interpolation-filters="sRGB">
<feFlood flood-opacity="0" result="BackgroundImageFix"/>
<feBlend mode="normal" in="SourceGraphic" in2="BackgroundImageFix" result="shape"/>
<feColorMatrix in="SourceAlpha" type="matrix" values="0 0 0 0 0 0 0 0 0 0 0 0 0 0 0 0 0 0 127 0" result="hardAlpha"/>
<feMorphology radius="13" operator="erode" in="SourceAlpha" result="effect1_innerShadow_2021_10"/>
<feOffset/>
<feGaussianBlur stdDeviation="16"/>
<feComposite in2="hardAlpha" operator="arithmetic" k2="-1" k3="1"/>
<feColorMatrix type="matrix" values="0 0 0 0 0 0 0 0 0 0 0 0 0 0 0 0 0 0 0.25 0"/>
<feBlend mode="normal" in2="shape" result="effect1_innerShadow_2021_10"/>
</filter>
<clipPath id="clip0_2021_10">
<rect width="28.4766" height="20.332" fill="white" transform="translate(26 30)"/>
</clipPath>
</defs>
</svg>
