<svg width="36" height="28" viewBox="0 0 36 28" fill="none" xmlns="http://www.w3.org/2000/svg">
<g clip-path="url(#clip0_1899_30559)">
<path d="M21.6328 23.0898H24.3047C25.3242 23.0898 25.8633 22.5508 25.8633 21.5195V5.55859C25.8633 4.49219 25.3242 4 24.3047 4H21.6328C20.6133 4 20.0742 4.53906 20.0742 5.55859V21.5195C20.0742 22.5508 20.6133 23.0898 21.6328 23.0898ZM30.9844 23.0898H33.6445C34.6758 23.0898 35.2031 22.5508 35.2031 21.5195V5.55859C35.2031 4.49219 34.6758 4 33.6445 4H30.9844C29.9531 4 29.4258 4.53906 29.4258 5.55859V21.5195C29.4258 22.5508 29.9531 23.0898 30.9844 23.0898ZM1.6875 22.7383C2.16797 22.7383 2.55469 22.5859 3.03516 22.3047L14.9766 15.2852C15.8086 14.793 16.1602 14.207 16.1602 13.5391C16.1602 12.8594 15.8086 12.2852 14.9766 11.793L3.03516 4.76172C2.55469 4.48047 2.16797 4.32812 1.6875 4.32812C0.761719 4.32812 0 5.03125 0 6.34375V20.7344C0 22.0469 0.761719 22.7383 1.6875 22.7383Z" fill="currentColor"/>
</g>
<defs>
<clipPath id="clip0_1899_30559">
<rect width="35.2031" height="19.0898" fill="white" transform="translate(0 4)"/>
</clipPath>
</defs>
</svg>
