<svg width="28" height="28" viewBox="0 0 28 28" fill="none" xmlns="http://www.w3.org/2000/svg">
<path d="M6 9.8125H22.2891V3.44922C22.2891 1.97266 21.3398 1 19.9219 1H8.35547C6.94922 1 6 1.97266 6 3.44922V9.8125ZM9.24609 7.60938C8.90625 7.60938 8.64844 7.36328 8.64844 7.01172V4.33984C8.64844 4 8.89453 3.75391 9.24609 3.75391C9.58594 3.75391 9.83203 3.98828 9.83203 4.33984V7.01172C9.83203 7.35156 9.59766 7.60938 9.24609 7.60938ZM6 22.8203H22.2891V11.1836H6V22.8203ZM9.24609 16.7852C8.90625 16.7852 8.64844 16.5508 8.64844 16.1992V13.5273C8.64844 13.1875 8.89453 12.9414 9.24609 12.9414C9.58594 12.9414 9.83203 13.1758 9.83203 13.5273V16.1992C9.83203 16.5391 9.59766 16.7852 9.24609 16.7852ZM6 24.1914V25.0703C6 26.5469 6.94922 27.5195 8.35547 27.5195H19.9219C21.3398 27.5195 22.2891 26.5469 22.2891 25.0703V24.1914H6Z" fill="currentColor"/>
</svg>
