<svg width="28" height="28" viewBox="0 0 28 28" fill="none" xmlns="http://www.w3.org/2000/svg">
<g clip-path="url(#clip0_1899_26451)">
<path d="M12.457 23.8242H14.3438V15.7266C14.3438 14.8594 14.8711 14.3672 15.8086 14.3672H23.6836V12.4805H15.7734C13.6992 12.4805 12.457 13.6641 12.457 15.6445V23.8242ZM6.67969 24.5977H20.8945C23.3555 24.5977 24.5742 23.3789 24.5742 20.9648V6.65625C24.5742 4.24219 23.3555 3.02344 20.8945 3.02344H6.67969C4.23047 3.02344 3 4.23047 3 6.65625V20.9648C3 23.3906 4.23047 24.5977 6.67969 24.5977ZM6.70312 22.7109C5.53125 22.7109 4.88672 22.0898 4.88672 20.8711V6.75C4.88672 5.53125 5.53125 4.91016 6.70312 4.91016H20.8711C22.0312 4.91016 22.6875 5.53125 22.6875 6.75V20.8711C22.6875 22.0898 22.0312 22.7109 20.8711 22.7109H6.70312Z" fill="currentColor"/>
</g>
<defs>
<clipPath id="clip0_1899_26451">
<rect width="21.5742" height="21.5977" fill="white" transform="translate(3 3)"/>
</clipPath>
</defs>
</svg>
