<svg width="28" height="28" viewBox="0 0 28 28" fill="none" xmlns="http://www.w3.org/2000/svg">
<g clip-path="url(#clip0_1899_8064)">
<path d="M14.3824 25.6953C14.898 25.6953 15.2027 25.332 15.2027 24.8281V22.2852L17.2183 23.4336C17.6519 23.668 18.0972 23.6328 18.3433 23.1992C18.5543 22.8359 18.4254 22.3789 17.98 22.1328L15.2027 20.5508V19.0625L14.9683 14.8789L18.4957 17.1641L19.7965 17.9023L19.773 21.1016C19.7613 21.6055 20.0894 21.9688 20.4996 21.9688C21.0035 21.9688 21.2613 21.5938 21.2613 21.1016L21.273 18.7578L23.4879 20.0469C23.9449 20.3164 24.3785 20.1992 24.6246 19.7773C24.8707 19.332 24.7418 18.875 24.3082 18.6289L22.0933 17.3516L24.109 16.168C24.5308 15.9102 24.7183 15.5117 24.4722 15.0898C24.2379 14.7148 23.7925 14.6094 23.359 14.8672L20.605 16.4844L19.3043 15.7461L15.5191 13.8477L19.316 11.9492L20.5933 11.1992L23.3472 12.8164C23.7808 13.0742 24.2613 12.9688 24.484 12.6055C24.7183 12.1836 24.5308 11.7734 24.109 11.5156L22.0933 10.3438L24.3082 9.06641C24.7535 8.80859 24.8824 8.36328 24.6363 7.91797C24.3902 7.49609 23.9332 7.37891 23.4996 7.64844L21.273 8.91406L21.2496 6.58203C21.2496 6.07812 21.0035 5.72656 20.5113 5.72656C20.0777 5.72656 19.7613 6.07812 19.773 6.58203L19.7847 9.76953L18.4957 10.5195L14.9683 12.8164L15.2027 8.62109V7.13281L17.98 5.5625C18.4254 5.30469 18.5543 4.85938 18.3433 4.48438C18.0972 4.0625 17.6519 4.01562 17.2183 4.26172L15.2027 5.41016V2.85547C15.2027 2.35156 14.898 2 14.3824 2C13.8902 2 13.5738 2.35156 13.5738 2.85547V5.41016L11.523 4.26172C11.0894 4.01562 10.6676 4.0625 10.4097 4.48438C10.1988 4.85938 10.3394 5.30469 10.7847 5.55078L13.5738 7.13281V8.62109L13.7964 12.8164L10.2691 10.5195L8.96833 9.76953L8.99177 6.58203C9.00349 6.07812 8.68708 5.72656 8.2652 5.72656C7.7613 5.72656 7.50349 6.08984 7.50349 6.58203L7.49177 8.91406L5.2652 7.64844C4.84333 7.39062 4.36286 7.49609 4.12849 7.91797C3.87067 8.36328 4.0113 8.82031 4.45661 9.06641L6.65974 10.3438L4.65583 11.5156C4.23395 11.7734 4.04645 12.1484 4.28083 12.6055C4.49177 12.9805 4.97224 13.0742 5.41755 12.8164L8.15974 11.2109L9.4488 11.9492L13.2339 13.8477L9.4488 15.7461L8.15974 16.4961L5.40583 14.8672C4.97224 14.6094 4.50349 14.7148 4.30427 15.0781C4.05817 15.5352 4.23395 15.9102 4.65583 16.168L6.67145 17.3516L4.45661 18.6289C4.02302 18.875 3.88239 19.3438 4.12849 19.7656C4.3863 20.2109 4.84333 20.3047 5.2652 20.0469L7.49177 18.7812L7.50349 21.1016C7.50349 21.5938 7.7613 21.9688 8.25349 21.9688C8.67536 21.9688 9.00349 21.6055 8.99177 21.1016L8.98005 17.9023L10.2691 17.1758L13.7964 14.8789L13.5738 19.0625V20.5508L10.7847 22.1328C10.3394 22.3789 10.1988 22.8359 10.4097 23.1992C10.6676 23.6328 11.0894 23.668 11.523 23.4336L13.5738 22.2734V24.8281C13.5738 25.332 13.8902 25.6953 14.3824 25.6953Z" fill="currentColor"/>
</g>
<defs>
<clipPath id="clip0_1899_8064">
<rect width="20.7596" height="23.707" fill="currentColor" transform="translate(4 2)"/>
</clipPath>
</defs>
</svg>
