<svg width="28" height="28" viewBox="0 0 28 28" fill="none" xmlns="http://www.w3.org/2000/svg">
<path d="M7.72852 18.5996H11.0684C11.1856 18.5996 11.2793 18.6348 11.3613 18.7051L16.4238 23.4395C16.9746 23.9551 17.4199 24.1777 17.959 24.1777C18.5684 24.1777 19.0254 23.873 19.2129 23.2051L5.85352 9.85742C5.51367 10.2441 5.33789 10.8301 5.33789 11.6152V16.1035C5.33789 17.8027 6.13477 18.5996 7.72852 18.5996ZM19.2949 16.8887V4.88867C19.2949 4.12695 18.7441 3.50586 17.9473 3.50586C17.3965 3.50586 17.0332 3.75195 16.4238 4.31445L11.7129 8.68555C11.6543 8.73242 11.584 8.7793 11.5137 8.7793H11.1621L19.2949 16.8887ZM23.3379 25.4082C23.6895 25.7598 24.2754 25.7598 24.6152 25.4082C24.9668 25.0449 24.9668 24.4824 24.6152 24.1309L4.55273 4.06836C4.20117 3.7168 3.61523 3.7168 3.26367 4.06836C2.91211 4.4082 2.91211 5.00586 3.26367 5.3457L23.3379 25.4082Z" fill="currentColor"/>
</svg>
