<svg width="32" height="28" viewBox="0 0 32 28" fill="none" xmlns="http://www.w3.org/2000/svg">
<path d="M12.6328 24.6667C13.4062 24.6667 13.957 24.1159 13.957 23.3542V5.37759C13.957 4.61587 13.4062 3.99478 12.6094 3.99478C12.0586 3.99478 11.6836 4.22915 11.0977 4.80337L6.09375 9.49087C6.02344 9.56119 5.91797 9.59634 5.80078 9.59634H2.44922C0.855469 9.59634 0 10.4753 0 12.1628V16.5221C0 18.2213 0.855469 19.0885 2.44922 19.0885H5.80078C5.91797 19.0885 6.02344 19.1237 6.09375 19.194L11.0977 23.9284C11.625 24.444 12.082 24.6667 12.6328 24.6667ZM18.1406 19.3112C18.5273 19.5807 19.0781 19.4987 19.3945 19.0417C20.2969 17.8581 20.8359 16.112 20.8359 14.319C20.8359 12.526 20.2969 10.7917 19.3945 9.59634C19.0781 9.13931 18.5273 9.04556 18.1406 9.32681C17.6602 9.65494 17.5898 10.2409 17.9531 10.7213C18.6328 11.6588 19.0195 12.9596 19.0195 14.319C19.0195 15.6784 18.6211 16.9674 17.9531 17.9167C17.6016 18.4088 17.6602 18.9713 18.1406 19.3112ZM22.4883 22.3698C22.9219 22.6627 23.4609 22.5573 23.7773 22.112C25.2773 20.0495 26.1562 17.2135 26.1562 14.319C26.1562 11.4245 25.2891 8.56509 23.7773 6.52603C23.4609 6.08072 22.9219 5.97525 22.4883 6.26822C22.0547 6.56119 21.9844 7.11197 22.3242 7.59244C23.6016 9.39712 24.3398 11.8229 24.3398 14.319C24.3398 16.8151 23.5781 19.2174 22.3242 21.0456C21.9961 21.526 22.0547 22.0768 22.4883 22.3698ZM26.8828 25.4752C27.2812 25.7682 27.8555 25.651 28.1719 25.1823C30.2227 22.2174 31.4531 18.4557 31.4531 14.319C31.4531 10.1706 30.1875 6.43228 28.1719 3.45572C27.8555 2.97525 27.2812 2.86978 26.8828 3.16275C26.4375 3.46743 26.3789 4.01822 26.6953 4.49869C28.5117 7.18228 29.6602 10.5573 29.6602 14.319C29.6602 18.069 28.5117 21.4674 26.6953 24.1393C26.3789 24.6198 26.4375 25.1706 26.8828 25.4752Z" fill="currentColor"/>
</svg>
