<svg width="28" height="28" viewBox="0 0 28 28" fill="none" xmlns="http://www.w3.org/2000/svg">
<path d="M13.6328 24.6836C14.4062 24.6836 14.957 24.1328 14.957 23.3711V5.39453C14.957 4.63281 14.4062 4.01172 13.6094 4.01172C13.0586 4.01172 12.6953 4.25781 12.0977 4.82031L7.09375 9.50781C7.02344 9.57812 6.91797 9.61328 6.80078 9.61328H3.44922C1.85547 9.61328 1 10.4922 1 12.1797V16.5391C1 18.2383 1.85547 19.1055 3.44922 19.1055H6.80078C6.91797 19.1055 7.02344 19.1406 7.09375 19.2109L12.0977 23.9453C12.625 24.4609 13.082 24.6836 13.6328 24.6836ZM19.1523 19.3281C19.5391 19.5977 20.0898 19.5156 20.4062 19.0586C21.3086 17.875 21.8477 16.1289 21.8477 14.3359C21.8477 12.543 21.3086 10.8086 20.4062 9.61328C20.0898 9.15625 19.5391 9.0625 19.1523 9.34375C18.6719 9.67188 18.6016 10.2578 18.9648 10.7383C19.6445 11.6758 20.0312 12.9766 20.0312 14.3359C20.0312 15.6953 19.6328 16.9844 18.9648 17.9336C18.6133 18.4258 18.6719 18.9883 19.1523 19.3281ZM23.4883 22.3867C23.9219 22.6797 24.4609 22.5742 24.7773 22.1289C26.2773 20.0664 27.1562 17.2305 27.1562 14.3359C27.1562 11.4414 26.2891 8.58203 24.7773 6.54297C24.4609 6.09766 23.9219 5.99219 23.4883 6.28516C23.0547 6.57812 22.9844 7.12891 23.3242 7.60938C24.6016 9.41406 25.3398 11.8398 25.3398 14.3359C25.3398 16.832 24.5781 19.2344 23.3242 21.0625C22.9961 21.543 23.0547 22.0938 23.4883 22.3867Z" fill="currentColor"/>
</svg>
