<svg width="28" height="28" viewBox="0 0 28 28" fill="none" xmlns="http://www.w3.org/2000/svg">
<g clip-path="url(#clip0_1899_26373)">
<path d="M12.7852 4.26562L6.75 3.60938C5.68359 3.49219 4.93359 4.16016 4.93359 5.16797C4.93359 6.1875 5.68359 6.86719 6.75 6.75L12.7852 6.08203V4.26562ZM13.8516 7.34766C15.0586 7.34766 16.0312 6.375 16.0312 5.16797C16.0312 3.97266 15.0586 3 13.8516 3C12.6562 3 11.6836 3.97266 11.6836 5.16797C11.6836 6.375 12.6562 7.34766 13.8516 7.34766ZM14.918 4.26562V6.08203L20.9648 6.75C22.0195 6.86719 22.7695 6.1875 22.7695 5.16797C22.7695 4.16016 22.0195 3.49219 20.9648 3.60938L14.918 4.26562ZM12.8203 6.50391V9.28125H14.8945V6.50391H12.8203ZM10.582 11.5312H17.0977V9.99609C17.0977 9.07031 16.5234 8.49609 15.5977 8.49609H12.0703C11.1562 8.49609 10.582 9.07031 10.582 9.99609V11.5312ZM13.8398 23.2148C15.7969 23.2148 16.9805 22.418 18.293 21.2109C18.8203 20.6836 19.5117 20.4141 20.1211 20.4141C21.2812 20.4141 22.207 21.2695 22.207 22.8164V24.4453C22.207 24.9375 22.4297 25.1602 22.9219 25.1602H27.2109C27.7031 25.1602 27.9375 24.9375 27.9375 24.4453V23.3555C27.9375 16.6875 24 14.4492 20.2031 14.4492H19.6992C19.3711 14.4492 19.1484 14.2617 19.0547 14.0039L18.3398 12.0703C18.1289 11.4844 17.9297 11.332 17.4141 11.332H10.2539C9.73828 11.332 9.55078 11.4844 9.32812 12.0703L8.625 14.0039C8.51953 14.2617 8.29688 14.4492 7.98047 14.4492H1.08984V20.3438H7.58203C8.30859 20.3438 8.67188 20.4375 9.1875 21.0352C10.3359 22.2891 11.8711 23.2148 13.8398 23.2148ZM0.9375 23.2969C1.46484 23.2969 1.88672 22.8633 1.88672 22.3477V12.7734C1.88672 12.2578 1.46484 11.8242 0.9375 11.8242C0.421875 11.8242 0 12.2578 0 12.7734V22.3477C0 22.8633 0.421875 23.2969 0.9375 23.2969Z" fill="currentColor"/>
</g>
<defs>
<clipPath id="clip0_1899_26373">
<rect width="27.9375" height="22.5352" fill="white" transform="translate(0 3)"/>
</clipPath>
</defs>
</svg>
