<svg width="32" height="28" viewBox="0 0 32 28" fill="none" xmlns="http://www.w3.org/2000/svg">
<path d="M3.67969 24.5977H27.9961C30.4453 24.5977 31.6641 23.3789 31.6641 20.9648V6.65625C31.6641 4.24219 30.4453 3.02344 27.9961 3.02344H3.67969C1.23047 3.02344 0 4.23047 0 6.65625V20.9648C0 23.3906 1.23047 24.5977 3.67969 24.5977ZM3.70312 22.7109C2.53125 22.7109 1.88672 22.0898 1.88672 20.8711V6.75C1.88672 5.53125 2.53125 4.91016 3.70312 4.91016H27.9609C29.1211 4.91016 29.7773 5.53125 29.7773 6.75V20.8711C29.7773 22.0898 29.1211 22.7109 27.9609 22.7109H3.70312ZM0 19.0195H4.78125C6.33984 19.0195 7.24219 18.1172 7.24219 16.582V11.0273C7.24219 9.49219 6.33984 8.58984 4.78125 8.58984H0V10.2422H4.76953C5.28516 10.2422 5.58984 10.5469 5.58984 11.0742V16.5352C5.58984 17.0625 5.28516 17.3672 4.76953 17.3672H0V19.0195ZM14.9766 23.0156H16.6289V4.60547H14.9766V23.0156ZM15.7852 19.3359C19.0898 19.3359 21.3633 17.0859 21.3281 13.8047C21.3047 10.5703 19.043 8.30859 15.7852 8.28516C12.5391 8.25 10.2773 10.5 10.2773 13.8047C10.2773 17.0859 12.5391 19.3359 15.7852 19.3359ZM15.7969 17.7656C13.4766 17.7656 11.8359 16.125 11.8359 13.793C11.8359 11.4727 13.4766 9.85547 15.7969 9.85547C18.1406 9.85547 19.7812 11.4727 19.7695 13.793C19.7578 16.125 18.1172 17.7656 15.7969 17.7656ZM31.6641 19.0195V17.3672H26.8945C26.3906 17.3672 26.0859 17.0625 26.0859 16.5352V11.0742C26.0859 10.5469 26.3906 10.2422 26.8945 10.2422H31.6641V8.58984H26.8828C25.3242 8.58984 24.4336 9.49219 24.4336 11.0273V16.582C24.4336 18.1172 25.3242 19.0195 26.8828 19.0195H31.6641Z" fill="currentColor"/>
</svg>
