<svg width="28" height="29" viewBox="0 0 28 29" fill="none" xmlns="http://www.w3.org/2000/svg">
<path d="M14.4473 16.3594C18.8184 16.3594 22.3691 12.8086 22.3691 8.4375C22.3691 8.27344 22.3691 8.12109 22.3574 7.95703C24.3144 7.75781 25.8379 6.10547 25.8379 4.08984C25.8379 1.95703 24.1035 0.222656 21.959 0.222656C20.6699 0.222656 19.5215 0.855469 18.8184 1.83984C17.5644 0.996094 16.0644 0.515625 14.4473 0.515625C12.8301 0.515625 11.3301 0.996094 10.0762 1.83984C9.37304 0.855469 8.2246 0.222656 6.93554 0.222656C4.79101 0.222656 3.05663 1.95703 3.05663 4.08984C3.05663 6.10547 4.58007 7.75781 6.5371 7.95703C6.52538 8.12109 6.52538 8.27344 6.52538 8.4375C6.52538 12.8086 10.0762 16.3594 14.4473 16.3594ZM11.3887 7.91016C10.8496 7.91016 10.3808 7.45312 10.3808 6.89062C10.3808 6.32812 10.8496 5.87109 11.3887 5.87109C11.9512 5.87109 12.4082 6.32812 12.4082 6.89062C12.4082 7.45312 11.9512 7.91016 11.3887 7.91016ZM17.5176 7.91016C16.9551 7.91016 16.498 7.45312 16.498 6.89062C16.498 6.32812 16.9551 5.87109 17.5176 5.87109C18.0566 5.87109 18.5254 6.32812 18.5254 6.89062C18.5254 7.45312 18.0566 7.91016 17.5176 7.91016ZM6.93554 1.89844C7.70898 1.89844 8.38866 2.29688 8.77538 2.91797C7.87304 3.83203 7.18163 4.99219 6.83007 6.26953C6.74804 6.26953 6.67773 6.25781 6.61913 6.24609C5.55273 6.09375 4.74413 5.19141 4.74413 4.08984C4.74413 2.88281 5.72851 1.89844 6.93554 1.89844ZM21.959 1.89844C23.166 1.89844 24.1504 2.88281 24.1504 4.08984C24.1504 5.17969 23.3418 6.10547 22.2754 6.24609C22.2051 6.25781 22.1113 6.26953 22.0644 6.26953C21.7129 4.99219 21.0215 3.83203 20.1191 2.91797C20.5059 2.29688 21.1855 1.89844 21.959 1.89844ZM14.4707 15.375C12.4551 15.375 10.8496 13.7578 10.8496 11.7539C10.8496 9.76172 12.4668 8.13281 14.4707 8.13281C16.4629 8.13281 18.0918 9.75 18.0918 11.7539C18.0918 13.7461 16.4512 15.375 14.4707 15.375ZM14.4473 12.2109C15.1504 12.2109 16.2754 11.1562 16.2754 10.8633C16.2754 10.3828 15.5019 9.71484 14.4473 9.71484C13.3926 9.71484 12.584 10.3828 12.584 10.8633C12.584 11.1562 13.7559 12.2109 14.4473 12.2109ZM24.5605 14.707L20.2598 12.7617L15.5723 15.8906H13.3457L8.6582 12.7617L4.35741 14.707C2.30663 15.6328 1.43945 18.082 2.37695 20.1094C2.85742 21.1172 3.68945 21.8438 4.69726 22.1836C5.31835 19.9219 7.02929 18.3164 9.10351 18.3164C11.7285 18.3164 13.7793 20.8945 13.7793 24.1172C13.7793 25.5469 13.3691 26.8477 12.7012 27.8672C13.8027 28.0195 15.1035 28.0078 16.2168 27.8672C15.5488 26.8477 15.1387 25.5469 15.1387 24.1172C15.1387 20.8945 17.1894 18.3164 19.8144 18.3164C21.8887 18.3164 23.5996 19.9219 24.2207 22.1836C25.2285 21.8438 26.0605 21.1172 26.541 20.1094C27.4785 18.082 26.6113 15.6328 24.5605 14.707ZM9.10351 28.8867C11.1308 28.8867 12.7129 26.7539 12.7129 24.1172C12.7129 21.5156 11.1308 19.3828 9.10351 19.3828C7.07616 19.3828 5.49413 21.5156 5.49413 24.1172C5.49413 26.7539 7.07616 28.8867 9.10351 28.8867ZM19.8144 28.8867C21.8418 28.8867 23.4238 26.7539 23.4238 24.1172C23.4238 21.5156 21.8418 19.3828 19.8144 19.3828C17.7871 19.3828 16.2051 21.5156 16.2051 24.1172C16.2051 26.7539 17.7871 28.8867 19.8144 28.8867Z" fill="currentColor"/>
</svg>
