<svg width="28" height="28" viewBox="0 0 28 28" fill="none" xmlns="http://www.w3.org/2000/svg">
<path d="M24.2646 3.72757C21.3936 0.856472 16.4014 1.23147 13.0615 4.5596C11.1279 6.50491 10.3193 8.91898 10.2959 11.2979C10.249 14.8252 9.90918 16.8643 6.66309 20.1104L7.88184 21.3174C11.1162 18.0947 13.1436 17.8135 16.6709 17.6963C19.085 17.626 21.4639 16.876 23.4209 14.9189C26.7607 11.5791 27.1357 6.58694 24.2646 3.72757ZM23.0107 4.96976C25.3193 7.29007 25.0498 10.8057 22.1787 13.665C19.2842 16.5479 15.7686 16.8291 13.4717 14.5205C11.1514 12.2236 11.4209 8.69632 14.3154 5.81351C17.1865 2.94241 20.7139 2.67288 23.0107 4.96976ZM12.2178 15.7744C12.5459 16.126 12.9443 16.4072 13.3545 16.665C12.2061 16.8643 11.1279 17.251 9.96777 18.0244C10.7412 16.876 11.1279 15.7861 11.3154 14.6377C11.5615 15.0479 11.8662 15.4346 12.2178 15.7744ZM1.41309 25.7705L2.18652 26.5557C2.7373 27.083 3.53418 27.083 4.07324 26.5557L8.6084 22.0088C9.15918 21.458 9.15918 20.6611 8.6084 20.1221L7.83496 19.3369C7.2959 18.7979 6.4873 18.7979 5.94824 19.3369L1.41309 23.8955C0.862305 24.4229 0.862305 25.2197 1.41309 25.7705ZM11.21 11.1572L11.7959 11.7432L20.2451 3.29398L19.6592 2.69632L11.21 11.1572ZM11.8662 13.8525L12.4404 14.4385L22.9287 3.96194L22.3662 3.36429L11.8662 13.8525ZM13.542 15.54L14.1396 16.126L24.6279 5.63773L24.042 5.04007L13.542 15.54ZM16.249 16.1963L16.8232 16.7939L25.2842 8.33304L24.6865 7.7471L16.249 16.1963ZM18.792 3.02444L24.8857 9.10648L25.4717 8.52054L19.3779 2.43851L18.792 3.02444ZM16.1436 3.57523L24.3936 11.8486L25.0029 11.251L16.7295 2.98929L16.1436 3.57523ZM14.4326 5.02835L22.9287 13.5479L23.5381 12.9502L15.0186 4.43069L14.4326 5.02835ZM12.9443 6.51663L21.4404 15.0361L22.0381 14.4385L13.5303 5.91898L12.9443 6.51663ZM11.4912 8.22757L19.7529 16.501L20.3389 15.915L12.0654 7.65335L11.4912 8.22757ZM10.917 10.8526L17.0459 16.9932L17.6436 16.3955L11.5029 10.2666L10.917 10.8526Z" fill="currentColor"/>
</svg>
