<svg width="28" height="28" viewBox="0 0 28 28" fill="none" xmlns="http://www.w3.org/2000/svg">
<path d="M13.9531 25.9062C20.4922 25.9062 25.9062 20.4805 25.9062 13.9531C25.9062 7.41406 20.5039 2 13.9648 2C13.3438 2 13.0391 2.375 13.0391 2.98438V7.51953C13.0391 8.03516 13.3906 8.43359 13.8945 8.43359C14.4102 8.43359 14.7617 8.03516 14.7617 7.51953V2.96094L13.9414 3.99219C19.4961 3.99219 23.9023 8.42188 23.9023 13.9531C23.9023 19.4844 19.4844 23.9141 13.9531 23.9141C8.42188 23.9141 3.98047 19.4844 3.99219 13.9531C4.00391 11.4805 4.88281 9.24219 6.35938 7.51953C6.71094 7.0625 6.73438 6.51172 6.34766 6.10156C5.96094 5.69141 5.31641 5.72656 4.88281 6.24219C3.10156 8.32812 2 11.0352 2 13.9531C2 20.4805 7.42578 25.9062 13.9531 25.9062ZM15.8281 15.6406C16.7539 14.668 16.5664 13.3672 15.4531 12.5938L9.25391 8.25781C8.66797 7.84766 8.05859 8.46875 8.46875 9.04297L12.793 15.2422C13.5781 16.3555 14.8789 16.5547 15.8281 15.6406Z" fill="currentColor"/>
</svg>
