<svg width="28" height="28" viewBox="0 0 28 28" fill="none" xmlns="http://www.w3.org/2000/svg">
<path d="M14.3164 9.03125C17.5039 9.03125 18.0195 6.65234 19.8828 6.65234C21.7812 6.65234 22.0859 9.03125 25.7422 9.03125H25.8008C26.2578 9.03125 26.6328 8.65625 26.6328 8.19922C26.6328 7.74219 26.2578 7.37891 25.8008 7.37891H25.7422C24.4766 7.37891 23.7734 6.85156 22.8945 6.23047C22.1328 5.67969 21.1836 5 19.8828 5C18.5352 5 17.5742 5.71484 16.8125 6.28906C16.0039 6.89844 15.3594 7.37891 14.3164 7.37891C13.2617 7.37891 12.6289 6.89844 11.8203 6.28906C11.0586 5.71484 10.0977 5 8.75 5C7.44922 5 6.5 5.67969 5.73828 6.23047C4.85938 6.85156 4.14453 7.37891 2.89062 7.37891H2.83203C2.36328 7.37891 2 7.74219 2 8.19922C2 8.65625 2.36328 9.03125 2.83203 9.03125H2.89062C6.53516 9.03125 6.85156 6.65234 8.75 6.65234C10.6133 6.65234 11.1172 9.03125 14.3164 9.03125ZM14.3164 16.1094C17.5039 16.1094 18.0195 13.7305 19.8828 13.7305C21.7812 13.7305 22.0859 16.1094 25.7422 16.1094H25.8008C26.2578 16.1094 26.6328 15.7461 26.6328 15.2891C26.6328 14.832 26.2578 14.457 25.8008 14.457H25.7422C24.4766 14.457 23.7734 13.9414 22.8945 13.3086C22.1328 12.7578 21.1836 12.0781 19.8828 12.0781C18.5352 12.0781 17.5742 12.8047 16.8125 13.3672C16.0039 13.9766 15.3594 14.457 14.3164 14.457C13.2617 14.457 12.6289 13.9766 11.8203 13.3672C11.0586 12.8047 10.0977 12.0781 8.75 12.0781C7.44922 12.0781 6.5 12.7578 5.73828 13.3086C4.85938 13.9414 4.14453 14.457 2.89062 14.457H2.83203C2.36328 14.457 2 14.832 2 15.2891C2 15.7461 2.36328 16.1094 2.83203 16.1094H2.89062C6.53516 16.1094 6.85156 13.7305 8.75 13.7305C10.6133 13.7305 11.1172 16.1094 14.3164 16.1094ZM14.3164 23.1992C17.5039 23.1992 18.0195 20.8203 19.8828 20.8203C21.7812 20.8203 22.0859 23.1992 25.7422 23.1992H25.8008C26.2578 23.1992 26.6328 22.8242 26.6328 22.3672C26.6328 21.9102 26.2578 21.5469 25.8008 21.5469H25.7422C24.4766 21.5469 23.7734 21.0195 22.8945 20.3984C22.1328 19.8359 21.1836 19.168 19.8828 19.168C18.5352 19.168 17.5742 19.8828 16.8125 20.4453C16.0039 21.0664 15.3594 21.5469 14.3164 21.5469C13.2617 21.5469 12.6289 21.0664 11.8203 20.4453C11.0586 19.8828 10.0977 19.168 8.75 19.168C7.44922 19.168 6.5 19.8359 5.73828 20.3984C4.85938 21.0195 4.14453 21.5469 2.89062 21.5469H2.83203C2.36328 21.5469 2 21.9102 2 22.3672C2 22.8242 2.36328 23.1992 2.83203 23.1992H2.89062C6.53516 23.1992 6.85156 20.8203 8.75 20.8203C10.6133 20.8203 11.1172 23.1992 14.3164 23.1992Z" fill="currentColor"/>
</svg>
