<svg width="28" height="28" viewBox="0 0 28 28" fill="none" xmlns="http://www.w3.org/2000/svg">
<g clip-path="url(#clip0_1899_26379)">
<path d="M17.0781 1H13.9023C11.9102 1 10.668 2.21875 10.668 4.16406V6.22656H12.4375V4.16406C12.4375 3.30859 12.9883 2.78125 13.9023 2.78125H17.0781C19.6094 2.78125 21.2383 4.53906 21.2383 7.25781V25.4453C21.2383 25.9727 21.6016 26.3477 22.1172 26.3477C22.6328 26.3477 23.0078 25.9727 23.0078 25.4453V7.25781C23.0078 3.44922 20.6992 1 17.0781 1ZM4 15.3203C4 15.7422 4.35156 16.082 4.77344 16.082H18.332C18.7539 16.082 19.0938 15.7422 19.0938 15.3203C19.0938 14.8984 18.7656 14.5469 18.3555 14.5469H18.2852C18.1914 12.0273 16.5859 9.84766 14.3711 8.81641V7.91406C14.3711 6.29688 13.1992 5.10156 11.5469 5.10156C9.89453 5.10156 8.72266 6.29688 8.72266 7.91406V8.81641C6.50781 9.84766 4.90234 12.0273 4.80859 14.5469H4.75C4.33984 14.5469 4 14.8984 4 15.3203ZM7.62109 19.2695C8.10156 19.2695 8.47656 18.8945 8.47656 18.4023C8.47656 17.9219 8.10156 17.5469 7.62109 17.5469C7.14062 17.5469 6.75391 17.9219 6.75391 18.4023C6.75391 18.8945 7.14062 19.2695 7.62109 19.2695ZM7.62109 22.4805C8.10156 22.4805 8.47656 22.0938 8.47656 21.6133C8.47656 21.1328 8.10156 20.7578 7.62109 20.7578C7.14062 20.7578 6.75391 21.1328 6.75391 21.6133C6.75391 22.0938 7.14062 22.4805 7.62109 22.4805ZM7.62109 25.6914C8.10156 25.6914 8.47656 25.3047 8.47656 24.8242C8.47656 24.3438 8.10156 23.9688 7.62109 23.9688C7.14062 23.9688 6.75391 24.3438 6.75391 24.8242C6.75391 25.3047 7.14062 25.6914 7.62109 25.6914ZM11.5352 19.2695C12.0156 19.2695 12.3906 18.8945 12.3906 18.4023C12.3906 17.9219 12.0156 17.5469 11.5352 17.5469C11.0547 17.5469 10.668 17.9219 10.668 18.4023C10.668 18.8945 11.0547 19.2695 11.5352 19.2695ZM11.5352 22.4805C12.0156 22.4805 12.3906 22.0938 12.3906 21.6133C12.3906 21.1328 12.0156 20.7578 11.5352 20.7578C11.0547 20.7578 10.668 21.1328 10.668 21.6133C10.668 22.0938 11.0547 22.4805 11.5352 22.4805ZM11.5352 25.6914C12.0156 25.6914 12.3906 25.3047 12.3906 24.8242C12.3906 24.3438 12.0156 23.9688 11.5352 23.9688C11.0547 23.9688 10.668 24.3438 10.668 24.8242C10.668 25.3047 11.0547 25.6914 11.5352 25.6914ZM15.4375 19.2695C15.918 19.2695 16.293 18.8945 16.293 18.4023C16.293 17.9219 15.918 17.5469 15.4375 17.5469C14.957 17.5469 14.5703 17.9219 14.5703 18.4023C14.5703 18.8945 14.957 19.2695 15.4375 19.2695ZM15.4375 22.4805C15.918 22.4805 16.293 22.0938 16.293 21.6133C16.293 21.1328 15.918 20.7578 15.4375 20.7578C14.957 20.7578 14.5703 21.1328 14.5703 21.6133C14.5703 22.0938 14.957 22.4805 15.4375 22.4805ZM15.4375 25.6914C15.918 25.6914 16.293 25.3047 16.293 24.8242C16.293 24.3438 15.918 23.9688 15.4375 23.9688C14.957 23.9688 14.5703 24.3438 14.5703 24.8242C14.5703 25.3047 14.957 25.6914 15.4375 25.6914Z" fill="black"/>
</g>
<defs>
<clipPath id="clip0_1899_26379">
<rect width="19.0078" height="25.3711" fill="white" transform="translate(4 1)"/>
</clipPath>
</defs>
</svg>
