<svg width="30" height="28" viewBox="0 0 30 28" fill="none" xmlns="http://www.w3.org/2000/svg">
<path d="M0.996094 23.7695H1.69922C2.29688 23.7695 2.69531 23.3828 2.69531 22.7734V21.0391C2.82422 21.0742 3.21094 21.0977 3.49219 21.0977H26.2031C26.4844 21.0977 26.8711 21.0742 27 21.0391V22.7734C27 23.3828 27.3984 23.7695 27.9961 23.7695H28.6992C29.3086 23.7695 29.6953 23.3828 29.6953 22.7734V14.7461C29.6953 12.5078 28.4766 11.3008 26.2383 11.3008H3.45703C1.21875 11.3008 0 12.5078 0 14.7461V22.7734C0 23.3828 0.386719 23.7695 0.996094 23.7695ZM2.34375 19.3867C2.09766 19.3867 1.94531 19.2109 1.94531 18.9297V14.4766C1.94531 13.5859 2.53125 13.0117 3.44531 13.0117H26.2617C27.1641 13.0117 27.75 13.5859 27.75 14.4766V18.9297C27.75 19.2109 27.5977 19.3867 27.3516 19.3867H2.34375ZM3.04688 11.5469H6.12891V9.13281C6.12891 8.04297 6.73828 7.44531 7.85156 7.44531H11.9648C13.0664 7.44531 13.6758 8.04297 13.6758 9.13281V11.5469H16.0195V9.13281C16.0195 8.04297 16.6289 7.44531 17.7305 7.44531H21.8438C22.957 7.44531 23.5664 8.04297 23.5664 9.13281V11.5469H26.6484V7.28125C26.6484 5.11328 25.4883 4 23.3789 4H6.31641C4.21875 4 3.04688 5.11328 3.04688 7.28125V11.5469Z" fill="black"/>
</svg>
