<svg width="28" height="28" viewBox="0 0 28 28" fill="none" xmlns="http://www.w3.org/2000/svg">
<g clip-path="url(#clip0_1899_28943)">
<path d="M6.69271 1.89062C6.11849 3.21484 5.84896 4.53906 5.84896 5.82812C5.84896 10.1055 8.87239 13.6094 13.5833 13.6094C18.2943 13.6094 21.3177 10.1055 21.3177 5.82812C21.3177 4.53906 21.0482 3.21484 20.4857 1.89062C20.2279 1.32812 19.5599 1.24609 19.1146 1.70312L16.4896 4.375L14.2513 1.48047C13.888 1.01172 13.2786 1.01172 12.9271 1.48047L10.6888 4.375L8.05208 1.70312C7.60677 1.24609 6.9388 1.32812 6.69271 1.89062ZM12.6458 25.5391C12.6458 26.0664 13.056 26.418 13.5833 26.418C19.6419 26.418 25.2083 22.6797 27.0365 17.4297C27.2943 16.7148 27.0247 16.2578 26.263 16.2578C20.2747 16.2578 15.9622 19.7734 14.2279 24.2148L14.5326 24.6133V12.4258H12.6458V25.5391ZM11.0404 21.0625C8.83724 18.2031 5.30989 16.2578 0.868489 16.2578C0.10677 16.2578 -0.162761 16.7148 0.0950509 17.4297C1.66536 21.9766 6.02474 25.3984 11.1341 26.207C11.0755 26.0078 11.0404 25.7734 11.0404 25.5391V21.0625Z" fill="black"/>
</g>
<defs>
<clipPath id="clip0_1899_28943">
<rect width="27.1315" height="25.418" fill="white" transform="translate(0 1)"/>
</clipPath>
</defs>
</svg>
