<svg width="28" height="28" viewBox="0 0 28 28" fill="none" xmlns="http://www.w3.org/2000/svg">
<g clip-path="url(#clip0_1899_26177)">
<path d="M18.5 1C14.3633 1 11.1055 4.01172 11.1055 7.84375C11.1055 12.0859 13.6484 13.1406 14.3516 20.4648C14.3867 20.875 14.6094 21.1328 15.043 21.1328H21.9688C22.4023 21.1328 22.625 20.875 22.6602 20.4648C23.3633 13.1406 25.918 12.0859 25.918 7.84375C25.918 4.01172 22.6484 1 18.5 1ZM18.5 2.72266C21.582 2.72266 24.1953 4.87891 24.1953 7.84375C24.1953 10.9961 22.1094 11.7109 21.0898 19.4102H15.9219C14.9023 11.7109 12.8281 10.9961 12.8281 7.84375C12.8281 4.87891 15.4297 2.72266 18.5 2.72266ZM15.0195 23.5234H22.0039C22.3789 23.5234 22.6836 23.2422 22.6836 22.8555C22.6836 22.4688 22.3789 22.1875 22.0039 22.1875H15.0195C14.6328 22.1875 14.3516 22.4688 14.3516 22.8555C14.3516 23.2422 14.6328 23.5234 15.0195 23.5234ZM18.5117 26.7344C20.2344 26.7344 21.6875 25.8672 21.7812 24.5781H15.2422C15.3125 25.8672 16.7773 26.7344 18.5117 26.7344ZM5.46875 20.1836H11.3867C11.8203 20.1836 12.0312 19.9141 12.0664 19.5391C12.3477 16.6328 12.9922 14.9102 13.5781 13.4805L12.5352 11.4414C11.9844 12.8242 11.1289 14.4883 10.5664 18.543H6.27734C5.39844 11.8984 3.65234 11.3945 3.65234 8.69922C3.65234 6.20312 5.82031 4.38672 8.42188 4.38672C9.88672 4.38672 11.2109 4.96094 12.0547 5.92188L12.8164 4.33984C11.6797 3.34375 10.1328 2.73438 8.42188 2.73438C4.84766 2.73438 2 5.35938 2 8.69922C2 12.4023 4.17969 13.3164 4.78906 19.5391C4.8125 19.9141 5.03516 20.1836 5.46875 20.1836ZM5.43359 22.4102H11.4219C11.7969 22.4102 12.1016 22.1289 12.1016 21.7539C12.1016 21.3672 11.7969 21.0859 11.4219 21.0859H5.43359C5.05859 21.0859 4.77734 21.3789 4.77734 21.7539C4.77734 22.1172 5.05859 22.4102 5.43359 22.4102ZM8.43359 25.3398C9.98047 25.3398 11.3164 24.5078 11.3398 23.3125H5.53906C5.5625 24.5078 6.875 25.3398 8.43359 25.3398Z" fill="currentColor"/>
</g>
<defs>
<clipPath id="clip0_1899_26177">
<rect width="23.918" height="25.7461" fill="white" transform="translate(2 1)"/>
</clipPath>
</defs>
</svg>
