<svg width="28" height="28" viewBox="0 0 28 28" fill="none" xmlns="http://www.w3.org/2000/svg">
<path d="M6 7.21875C6 11.7188 8.96484 12.832 9.44531 20.6484C9.46875 21.0703 9.72656 21.3398 10.1719 21.3398H17.5078C17.9648 21.3398 18.2109 21.0703 18.2461 20.6484C18.7266 12.832 21.6797 11.7188 21.6797 7.21875C21.6797 3.17578 18.2227 0 13.8398 0C9.45703 0 6 3.17578 6 7.21875ZM10.1367 23.8711H17.5547C17.9414 23.8711 18.2344 23.5664 18.2344 23.1797C18.2344 22.8047 17.9414 22.5 17.5547 22.5H10.1367C9.75 22.5 9.44531 22.8047 9.44531 23.1797C9.44531 23.5664 9.75 23.8711 10.1367 23.8711ZM13.8398 27.2695C15.6562 27.2695 17.168 26.3789 17.2852 25.0312H10.4062C10.4883 26.3789 12.0117 27.2695 13.8398 27.2695Z" fill="black"/>
</svg>
