<svg width="28" height="28" viewBox="0 0 28 28" fill="none" xmlns="http://www.w3.org/2000/svg">
<g clip-path="url(#clip0_1899_26305)">
<path d="M14.4219 20.8555C19.6133 20.8555 23.832 16.6367 23.832 11.4219C23.832 6.21875 19.6133 2 14.4219 2C9.21875 2 5 6.21875 5 11.4219C5 16.6367 9.21875 20.8555 14.4219 20.8555ZM14.4219 17.0703C11.2812 17.0703 8.78516 14.5742 8.78516 11.4219C8.78516 8.28125 11.2812 5.78516 14.4219 5.78516C17.5742 5.78516 20.0469 8.28125 20.0469 11.4219C20.0469 14.5742 17.5742 17.0703 14.4219 17.0703ZM14.4219 14.0469C15.8867 14.0469 17.0352 12.8867 17.0352 11.4219C17.0352 9.95703 15.8867 8.79688 14.4219 8.79688C12.957 8.79688 11.7969 9.95703 11.7969 11.4219C11.7969 12.8867 12.957 14.0469 14.4219 14.0469ZM13.4844 24.6758H15.3711V19.9883H13.4844V24.6758ZM10.3203 25.6133H18.5234C19.0391 25.6133 19.4609 25.1914 19.4609 24.6758C19.4609 24.1602 19.0391 23.7266 18.5234 23.7266H10.332C9.81641 23.7266 9.38281 24.1602 9.38281 24.6758C9.38281 25.1914 9.80469 25.6133 10.3203 25.6133Z" fill="black"/>
</g>
<defs>
<clipPath id="clip0_1899_26305">
<rect width="18.832" height="23.6367" fill="white" transform="translate(5 2)"/>
</clipPath>
</defs>
</svg>
