<svg width="28" height="28" viewBox="0 0 28 28" fill="none" xmlns="http://www.w3.org/2000/svg">
<g clip-path="url(#clip0_1899_26419)">
<path d="M8.75 15.1797H18.5117V12.4961C18.5117 10.4336 19.8945 8.91016 21.8516 8.91016H21.9805V6.54297C21.9805 5.00781 20.9844 4 19.5195 4H7.74219C6.26562 4 5.26953 5.00781 5.26953 6.54297V8.91016H5.39844C7.36719 8.91016 8.75 10.4336 8.75 12.4961V15.1797ZM2 19.6211C2 21.0859 2.97266 22.0586 4.40234 22.0586H22.8594C24.2773 22.0586 25.2617 21.0859 25.2617 19.6211V12.4961C25.2617 11.043 24.2773 10.0586 22.8594 10.0586H22.2734C20.8555 10.0586 19.8711 11.043 19.8711 12.4961V16.5391H7.37891V12.4961C7.37891 11.043 6.40625 10.0586 4.97656 10.0586H4.40234C2.97266 10.0586 2 11.043 2 12.4961V19.6211ZM6.13672 24.5664H6.875C7.50781 24.5664 7.91797 24.168 7.91797 23.5352V21.0508H5.10547V23.5352C5.10547 24.168 5.50391 24.5664 6.13672 24.5664ZM20.3867 24.5664H21.1133C21.7461 24.5664 22.1445 24.168 22.1445 23.5352V21.0508H19.3438V23.5352C19.3438 24.168 19.7539 24.5664 20.3867 24.5664Z" fill="currentColor"/>
</g>
<defs>
<clipPath id="clip0_1899_26419">
<rect width="23.2617" height="20.5898" fill="white" transform="translate(2 4)"/>
</clipPath>
</defs>
</svg>
