<svg width="28" height="28" viewBox="0 0 28 28" fill="none" xmlns="http://www.w3.org/2000/svg">
<path d="M13.1211 4.66797H14.4219V1.64453C14.4219 1.28125 14.1289 1 13.7656 1C13.4023 1 13.1211 1.29297 13.1211 1.65625V4.66797ZM13.7656 10.6445C15.7695 10.6445 17.3633 9.05078 17.3633 7.05859C17.3633 5.05469 15.7695 3.46094 13.7656 3.46094C11.7734 3.46094 10.1797 5.05469 10.1797 7.05859C10.1797 9.05078 11.7734 10.6445 13.7656 10.6445ZM13.7656 8.875C12.7109 8.875 11.9492 8.10156 11.9492 7.05859C11.9492 6.00391 12.7109 5.23047 13.7656 5.23047C14.8203 5.23047 15.5938 6.00391 15.5938 7.05859C15.5938 8.10156 14.8203 8.875 13.7656 8.875ZM13.2852 9.70703L11.4453 9.26172L6.92188 24.4609C6.76953 24.9531 7.08594 25.4805 7.58984 25.6094C8.09375 25.75 8.59766 25.457 8.75 24.9414L13.2852 9.70703ZM7.42578 23.793L6.55859 27.0391C6.47656 27.3672 6.65234 27.707 6.99219 27.7891C7.33203 27.8828 7.66016 27.6953 7.75391 27.3555L8.62109 24.1211L7.42578 23.793ZM14.2578 9.70703L18.793 24.9414C18.9453 25.457 19.4492 25.75 19.9531 25.6094C20.457 25.4805 20.7617 24.9531 20.6211 24.4609L16.0977 9.26172L14.2578 9.70703ZM20.1172 23.793L18.9102 24.1211L19.7891 27.3555C19.8828 27.6953 20.2109 27.8828 20.5508 27.7891C20.8789 27.707 21.0664 27.3672 20.9727 27.0391L20.1172 23.793ZM5.77344 16.2109C5.33984 16.2109 5 16.5508 5 16.9727C5 17.3945 5.33984 17.7461 5.77344 17.7461H21.7695C22.1914 17.7461 22.543 17.3945 22.543 16.9727C22.543 16.5508 22.1914 16.2109 21.7695 16.2109H5.77344ZM14.5391 14.957C14.5391 14.5352 14.1875 14.1836 13.7656 14.1836C13.3438 14.1836 13.0039 14.5352 13.0039 14.957V18.9883C13.0039 19.4102 13.3438 19.7617 13.7656 19.7617C14.1875 19.7617 14.5391 19.4102 14.5391 18.9883V14.957Z" fill="currentColor"/>
</svg>
