<svg width="31" height="28" viewBox="0 0 31 28" fill="none" xmlns="http://www.w3.org/2000/svg">
<path d="M14.7539 20.1797H15.8086C21.668 20.1797 25.6172 16.2305 25.6172 10.1016V7.72266C25.6172 4.93359 21.4453 3.03516 15.2812 3.03516C9.11719 3.03516 4.94531 4.93359 4.94531 7.72266V10.1016C4.94531 16.0195 8.88281 20.1797 14.7539 20.1797ZM15.2812 10.582C10.3828 10.582 6.77344 9.33984 6.77344 7.72266C6.77344 6.11719 10.3828 4.86328 15.2812 4.86328C20.1914 4.86328 23.8008 6.11719 23.8008 7.72266C23.8008 9.33984 20.1914 10.582 15.2812 10.582ZM24.3516 15H25.2773C27.8906 15 29.4609 13.6289 29.4609 11.3555C29.4609 9.09375 27.8789 7.71094 25.2773 7.71094H24.5273V9.52734H25.2773C26.7656 9.52734 27.6328 10.207 27.6328 11.3555C27.6328 12.4922 26.7656 13.1836 25.2773 13.1836H24.3516V15ZM15.2227 25.793C24.1289 25.793 30.4453 23.2617 30.4453 19.582C30.4453 18.1523 29.4727 16.8984 27.7617 15.8906C27.0586 16.1836 26.2852 16.3477 25.4062 16.3711C23.543 19.6172 20.1328 21.5508 15.8086 21.5508H14.7539C9.9375 21.5508 6.17578 18.9961 4.5 15C1.65234 16.1016 0 17.6953 0 19.582C0 23.2617 6.32812 25.793 15.2227 25.793Z" fill="currentColor"/>
</svg>
