<svg width="30" height="28" viewBox="0 0 30 28" fill="none" xmlns="http://www.w3.org/2000/svg">
<g clip-path="url(#clip0_1899_26353)">
<path d="M0 3.00391C0 4.01172 0.820312 4.83203 1.81641 4.83203C2.46094 4.83203 3.04688 4.48047 3.35156 3.95312H26.1914C26.4961 4.48047 27.082 4.83203 27.7266 4.83203C28.7227 4.83203 29.543 4.01172 29.543 3.00391C29.543 2.00781 28.7227 1.1875 27.7266 1.1875C27.082 1.1875 26.4961 1.55078 26.1914 2.06641H3.35156C3.04688 1.55078 2.46094 1.1875 1.81641 1.1875C0.820312 1.1875 0 2.00781 0 3.00391ZM5.16797 25.8086H13.1367C13.6172 25.8086 13.9688 25.457 13.9688 24.9648V1.85547C13.9688 1.36328 13.6172 1 13.1367 1H5.16797C4.6875 1 4.33594 1.36328 4.33594 1.85547V24.9648C4.33594 25.457 4.6875 25.8086 5.16797 25.8086ZM16.4062 25.8086H24.375C24.8555 25.8086 25.207 25.457 25.207 24.9648V1.85547C25.207 1.36328 24.8555 1 24.375 1H16.4062C15.9258 1 15.5742 1.36328 15.5742 1.85547V24.9648C15.5742 25.457 15.9258 25.8086 16.4062 25.8086Z" fill="currentColor"/>
</g>
<defs>
<clipPath id="clip0_1899_26353">
<rect width="29.543" height="25.6992" fill="white" transform="translate(0 1)"/>
</clipPath>
</defs>
</svg>
