<svg width="28" height="28" viewBox="0 0 28 28" fill="none" xmlns="http://www.w3.org/2000/svg">
<path d="M7.67969 26.5742H16.7852C19.2344 26.5742 20.4531 25.3555 20.4531 22.9648V22.7422H15.0273C14.3711 23.5508 13.3516 24.0664 12.2266 24.0664C10.2227 24.0664 8.60547 22.4492 8.60547 20.4453C8.60547 18.4531 10.2227 16.8359 12.2266 16.8359C13.3516 16.8359 14.3594 17.3398 15.0156 18.1484H20.4531V5.63281C20.4531 3.21875 19.2344 2 16.7852 2H7.67969C5.24219 2 4 3.20703 4 5.63281V22.9414C4 25.3672 5.24219 26.5742 7.67969 26.5742ZM8.48828 7.88281C7.66797 7.88281 7.02344 7.22656 7.02344 6.42969C7.02344 5.60938 7.66797 4.95312 8.48828 4.95312C9.29688 4.95312 9.95312 5.60938 9.95312 6.42969C9.95312 7.22656 9.29688 7.88281 8.48828 7.88281ZM12.2266 7.88281C11.418 7.88281 10.7734 7.22656 10.7734 6.42969C10.7734 5.60938 11.418 4.95312 12.2266 4.95312C13.0586 4.95312 13.7031 5.60938 13.7031 6.42969C13.7031 7.22656 13.0586 7.88281 12.2266 7.88281ZM15.9883 7.88281C15.168 7.88281 14.5234 7.22656 14.5234 6.42969C14.5234 5.60938 15.168 4.95312 15.9883 4.95312C16.8086 4.95312 17.4414 5.60938 17.4414 6.42969C17.4414 7.22656 16.8086 7.88281 15.9883 7.88281ZM8.48828 11.4922C7.66797 11.4922 7.02344 10.8359 7.02344 10.0273C7.02344 9.20703 7.66797 8.55078 8.48828 8.55078C9.29688 8.55078 9.95312 9.20703 9.95312 10.0273C9.95312 10.8359 9.29688 11.4922 8.48828 11.4922ZM12.2266 11.4922C11.418 11.4922 10.7734 10.8359 10.7734 10.0273C10.7734 9.20703 11.418 8.55078 12.2266 8.55078C13.0586 8.55078 13.7031 9.20703 13.7031 10.0273C13.7031 10.8359 13.0586 11.4922 12.2266 11.4922ZM15.9883 11.4922C15.168 11.4922 14.5234 10.8359 14.5234 10.0273C14.5234 9.20703 15.168 8.55078 15.9883 8.55078C16.8086 8.55078 17.4414 9.20703 17.4414 10.0273C17.4414 10.8359 16.8086 11.4922 15.9883 11.4922ZM8.48828 15.1133C7.66797 15.1133 7.02344 14.457 7.02344 13.6367C7.02344 12.8281 7.66797 12.1719 8.48828 12.1719C9.29688 12.1719 9.95312 12.8281 9.95312 13.6367C9.95312 14.457 9.29688 15.1133 8.48828 15.1133ZM12.2266 15.1133C11.418 15.1133 10.7734 14.457 10.7734 13.6367C10.7734 12.8281 11.418 12.1719 12.2266 12.1719C13.0586 12.1719 13.7031 12.8281 13.7031 13.6367C13.7031 14.457 13.0586 15.1133 12.2266 15.1133ZM15.9883 15.1133C15.168 15.1133 14.5234 14.457 14.5234 13.6367C14.5234 12.8281 15.168 12.1719 15.9883 12.1719C16.8086 12.1719 17.4414 12.8281 17.4414 13.6367C17.4414 14.457 16.8086 15.1133 15.9883 15.1133ZM12.2266 21.8633H21.6719C22.4453 21.8633 23.0898 21.2188 23.0898 20.4453C23.0898 19.6602 22.4453 19.0273 21.6719 19.0273H12.2266C11.4531 19.0273 10.8086 19.6602 10.8086 20.4453C10.8086 21.2188 11.4531 21.8633 12.2266 21.8633Z" fill="black"/>
</svg>
