<svg width="34" height="28" viewBox="0 0 34 28" fill="none" xmlns="http://www.w3.org/2000/svg">
<path d="M7.42969 11.2734C7.42969 10.6875 7.79297 10.3242 8.40234 10.3242H10.5117V8.27344C10.5117 7.67578 10.8516 7.3125 11.4375 7.3125C12.0117 7.3125 12.3633 7.67578 12.3633 8.27344V10.3242H14.3438C15 10.3242 15.3867 10.6875 15.3867 11.2734C15.3867 11.8828 15 12.2578 14.3438 12.2578H12.3633V14.3086C12.3633 14.9062 12.0117 15.2812 11.4375 15.2812C10.8516 15.2812 10.5117 14.9062 10.5117 14.3086V12.2578H8.40234C7.79297 12.2578 7.42969 11.8828 7.42969 11.2734ZM18.9492 12.9141C18.9492 11.9531 19.6992 11.2148 20.6367 11.2148C21.5859 11.2148 22.3242 11.9531 22.3242 12.9141C22.3242 13.8633 21.5859 14.6016 20.6367 14.6016C19.6992 14.6016 18.9492 13.8633 18.9492 12.9141ZM22.4062 9.44531C22.4062 8.48438 23.1445 7.74609 24.082 7.74609C25.043 7.74609 25.7695 8.48438 25.7695 9.44531C25.7695 10.3945 25.043 11.1211 24.082 11.1211C23.1445 11.1211 22.4062 10.3945 22.4062 9.44531ZM4.46484 24.2461C6.07031 24.2461 7.17188 23.6602 8.15625 22.4414L10.2773 19.875C10.582 19.5117 10.9336 19.3359 11.2852 19.3359H22.5469C22.8984 19.3359 23.25 19.5117 23.5547 19.875L25.6758 22.4414C26.6602 23.6602 27.7617 24.2461 29.3672 24.2461C32.0508 24.2461 33.832 22.4648 33.832 19.7227C33.832 18.5508 33.5625 17.2031 33.1055 15.6914C32.3906 13.2891 31.1367 10.0195 29.9414 7.48828C28.9336 5.37891 28.418 4.41797 25.9336 3.85547C23.7305 3.35156 20.6719 3.01172 16.9219 3.01172C13.1719 3.01172 10.1016 3.35156 7.89844 3.85547C5.41406 4.41797 4.89844 5.37891 3.89062 7.48828C2.69531 10.0195 1.44141 13.2891 0.726562 15.6914C0.269531 17.2031 0 18.5508 0 19.7227C0 22.4648 1.78125 24.2461 4.46484 24.2461Z" fill="currentColor"/>
</svg>
