<svg width="28" height="28" viewBox="0 0 28 28" fill="none" xmlns="http://www.w3.org/2000/svg">
<g clip-path="url(#clip0_1899_26429)">
<path d="M20.625 2H5.71875C4.08984 2 3 3.125 3 4.80078V7.91797H23.332V4.80078C23.332 3.125 22.2422 2 20.625 2ZM7.24219 6.58203C6.65625 6.58203 6.17578 6.08984 6.17578 5.51562C6.17578 4.91797 6.65625 4.4375 7.24219 4.4375C7.82812 4.4375 8.29688 4.91797 8.29688 5.51562C8.29688 6.08984 7.82812 6.58203 7.24219 6.58203ZM10.3242 6.58203C9.73828 6.58203 9.26953 6.08984 9.26953 5.51562C9.26953 4.91797 9.73828 4.4375 10.3242 4.4375C10.9102 4.4375 11.3789 4.91797 11.3789 5.51562C11.3789 6.08984 10.9102 6.58203 10.3242 6.58203ZM16.875 6.125C16.5117 6.125 16.2773 5.87891 16.2773 5.51562C16.2773 5.14062 16.5117 4.89453 16.875 4.89453H19.7578C20.1328 4.89453 20.3672 5.14062 20.3672 5.51562C20.3672 5.87891 20.1328 6.125 19.7578 6.125H16.875ZM5.71875 26.6094H14.6719C14.5898 26.4688 14.5078 26.3164 14.4492 26.1523L13.6289 23.9492C13.4883 23.9609 13.3242 23.9609 13.1719 23.9609C9.66797 23.9609 6.83203 21.125 6.83203 17.6328C6.83203 14.1406 9.66797 11.293 13.1719 11.293C16.6641 11.293 19.5 14.1406 19.5 17.6328C19.5 17.7148 19.5 17.8086 19.4883 17.9023C19.5352 17.9141 19.5586 17.9141 19.6289 17.9141C20.0508 17.9141 21.0117 17.0703 22.3242 17.0703C22.7461 17.0703 23.0977 17.1406 23.332 17.2227V9.51172H3V23.8203C3 25.4961 4.08984 26.6094 5.71875 26.6094ZM8.14453 17.6328C8.14453 20.5625 10.6289 22.6719 13.1484 22.6484L12.0703 19.7422C11.625 18.5352 12.2109 17.3281 13.3008 16.9297C14.0508 16.6602 14.8945 16.8242 15.4805 17.3633C15.8555 17.2109 16.3242 17.0703 16.9219 17.0703C17.3438 17.0703 17.7539 17.1875 18.1523 17.3516C18.1523 17.1758 18.1406 17 18.1172 16.8242C17.7422 14.4219 15.668 12.6055 13.1719 12.6055C10.3828 12.6055 8.14453 14.8438 8.14453 17.6328ZM19.6289 20.4219C20.9648 20.4219 21.2695 19.543 22.3125 19.543C23.2266 19.543 23.5664 20.2461 24.7617 20.3867L24.8438 19.3203C23.9648 19.1562 23.4492 18.4414 22.3125 18.4414C20.9883 18.4414 20.5547 19.3203 19.6289 19.3203C18.7031 19.3203 18.2578 18.4414 16.9336 18.4414C15.8086 18.4414 15.2812 19.1562 14.4023 19.3203L14.4844 20.3867C15.6797 20.2461 16.0195 19.543 16.9336 19.543C17.9766 19.543 18.2812 20.4219 19.6289 20.4219ZM17.0742 26.6328H22.1719C22.7695 26.6328 23.2852 26.293 23.5195 25.6719L25.8984 19.2617C26.0859 18.7344 25.8281 18.3477 25.4766 18.2188C25.1133 18.0898 24.6562 18.207 24.457 18.7227L22.1953 24.7812C22.1133 25.0039 21.9727 25.0977 21.7852 25.0977H17.4609C17.2734 25.0977 17.1328 25.0039 17.0508 24.7812L14.7891 18.7227C14.6016 18.207 14.1328 18.0898 13.7812 18.2188C13.418 18.3477 13.1719 18.7344 13.3594 19.2617L15.7383 25.6719C15.9609 26.293 16.4883 26.6328 17.0742 26.6328Z" fill="currentColor"/>
</g>
<defs>
<clipPath id="clip0_1899_26429">
<rect width="22.9614" height="24.8789" fill="white" transform="translate(3 2)"/>
</clipPath>
</defs>
</svg>
