<svg width="50" height="50" viewBox="0 0 50 50" fill="none" xmlns="http://www.w3.org/2000/svg">
<circle cx="25" cy="25" r="24" stroke="black" stroke-width="2"/>
<path d="M8.05682 21.2727H9.31818L12.2841 28.517H12.3864L15.3523 21.2727H16.6136V30H15.625V23.3693H15.5398L12.8125 30H11.858L9.13068 23.3693H9.04545V30H8.05682V21.2727ZM18.7326 30V21.2727H23.9996V22.2102H19.7894V25.1591H23.7269V26.0966H19.7894V29.0625H24.0678V30H18.7326ZM32.8249 21.2727V30H31.8022L27.0465 23.1477H26.9613V30H25.9045V21.2727H26.9272L31.6999 28.142H31.7852V21.2727H32.8249ZM40.6669 21.2727H41.7237V27.0511C41.7237 27.6477 41.5831 28.1804 41.3018 28.6491C41.0234 29.1151 40.63 29.483 40.1214 29.7528C39.6129 30.0199 39.0163 30.1534 38.3317 30.1534C37.647 30.1534 37.0504 30.0199 36.5419 29.7528C36.0334 29.483 35.6385 29.1151 35.3572 28.6491C35.0788 28.1804 34.9396 27.6477 34.9396 27.0511V21.2727H35.9964V26.9659C35.9964 27.392 36.0902 27.7713 36.2777 28.1037C36.4652 28.4332 36.7322 28.6932 37.0788 28.8835C37.4283 29.071 37.8459 29.1648 38.3317 29.1648C38.8175 29.1648 39.2351 29.071 39.5845 28.8835C39.9339 28.6932 40.201 28.4332 40.3857 28.1037C40.5732 27.7713 40.6669 27.392 40.6669 26.9659V21.2727Z" fill="currentColor"/>
</svg>
