<svg width="28" height="28" viewBox="0 0 28 28" fill="none" xmlns="http://www.w3.org/2000/svg">
<path d="M11.0508 26.7734H13.3008C18.2578 26.7734 21.3516 24.1719 21.3516 20V5.24609C21.3516 3.14844 17.4375 2 12.1758 2C6.91406 2 3 3.14844 3 5.24609V20C3 24.1719 6.10547 26.7734 11.0508 26.7734ZM12.1758 5.89062C8.07422 5.89062 5.23828 5.44531 5.23828 4.77734C5.23828 4.10938 8.07422 3.65234 12.1758 3.65234C16.2773 3.65234 19.1133 4.10938 19.1133 4.77734C19.1133 5.44531 16.2773 5.89062 12.1758 5.89062ZM20.1094 19.7891H22.0547C24.1406 19.7891 25.4766 18.3828 25.4766 16.2852V11.5977C25.4766 9.48828 24.1406 8.09375 22.0547 8.09375H20.1094V9.86328H22.0547C23.2383 9.86328 23.707 10.3438 23.707 11.5977V16.2852C23.707 17.5273 23.2383 18.0195 22.0547 18.0195H20.1094V19.7891Z" fill="currentColor"/>
</svg>
