<svg width="28" height="29" viewBox="0 0 28 29" fill="none" xmlns="http://www.w3.org/2000/svg">
<path d="M13.9538 15.9141C16.5202 15.9141 19.0515 15.7617 21.1257 15.457C22.7429 15.2109 23.2234 14.0273 22.6843 12.3516L19.5906 2.55469C19.0398 0.796875 17.6335 0 15.7234 0H12.1726C10.2624 0 8.85618 0.796875 8.3054 2.55469L5.21165 12.3516C4.67259 14.0273 5.15306 15.2109 6.77024 15.457C8.84446 15.7617 11.3757 15.9141 13.9538 15.9141ZM13.0046 15.2695V27.9844H14.8913V15.2695H13.0046ZM8.6804 28.793H19.2156C19.6491 28.793 19.9421 28.4883 19.9421 28.0312C19.9421 27.1406 19.2156 26.5195 18.1023 26.5195H9.79368C8.6804 26.5195 7.96556 27.1406 7.96556 28.0312C7.96556 28.4883 8.24681 28.793 8.6804 28.793Z" fill="currentColor"/>
</svg>
