<svg width="32" height="28" viewBox="0 0 32 28" fill="none" xmlns="http://www.w3.org/2000/svg">
<g clip-path="url(#clip0_1899_26291)">
<path d="M8.625 6C7.01953 6 6.08203 6.67969 4.93359 7.875L0.902344 12.1523C-0.304688 13.4062 -0.292969 14.8945 0.890625 16.1602L4.92188 20.5078C5.96484 21.6211 7.125 22.3945 8.625 22.3945H22.8516C24.3516 22.3945 25.5 21.6211 26.5547 20.5078L30.5742 16.1602C31.7578 14.8945 31.7812 13.4062 30.5742 12.1523L26.543 7.875C25.3828 6.67969 24.457 6 22.8516 6H8.625ZM7.69922 12.0586C8.85938 12.0586 9.80859 13.0078 9.80859 14.1562C9.80859 15.3047 8.85938 16.2656 7.69922 16.2656C6.55078 16.2656 5.61328 15.3047 5.61328 14.1562C5.61328 13.0078 6.55078 12.0586 7.69922 12.0586ZM15.75 14.2031C16.8984 14.2031 17.8359 15.1641 17.8359 16.3125C17.8359 17.4609 16.8984 18.4102 15.75 18.4102C14.5898 18.4102 13.6523 17.4609 13.6523 16.3125C13.6523 15.1641 14.5898 14.2031 15.75 14.2031ZM23.7891 12.0586C24.9375 12.0586 25.8867 13.0078 25.8867 14.1562C25.8867 15.3047 24.9375 16.2656 23.7891 16.2656C22.6406 16.2656 21.6797 15.3047 21.6797 14.1562C21.6797 13.0078 22.6406 12.0586 23.7891 12.0586Z" fill="black"/>
</g>
<defs>
<clipPath id="clip0_1899_26291">
<rect width="31.4707" height="16.418" fill="white" transform="translate(0 6)"/>
</clipPath>
</defs>
</svg>
