<svg width="28" height="29" viewBox="0 0 28 29" fill="none" xmlns="http://www.w3.org/2000/svg">
<path d="M3.39173 26.4322C5.21985 28.272 7.58704 28.2955 9.39173 26.4908C10.8331 25.0494 12.2277 21.7916 13.2941 20.1627L16.13 23.0103C16.9972 23.8892 18.0519 23.8892 18.8722 23.0455L19.88 22.0377C20.7355 21.1705 20.7238 20.1861 19.8449 19.3072L10.5284 9.97907C9.63782 9.10017 8.64173 9.08845 7.78626 9.94392L6.77845 10.9517C5.9347 11.7955 5.9347 12.815 6.8136 13.6939L9.64954 16.5299C8.03235 17.5963 4.78626 18.9908 3.33314 20.4322C1.54017 22.2369 1.55188 24.6158 3.39173 26.4322ZM6.52064 24.9088C5.71204 24.9088 5.06751 24.2525 5.06751 23.4556C5.06751 22.6588 5.71204 22.0142 6.52064 22.0142C7.31751 22.0142 7.96204 22.6588 7.96204 23.4556C7.96204 24.2525 7.31751 24.9088 6.52064 24.9088ZM21.2394 18.7681L25.7863 14.2213C27.087 12.9205 27.0519 11.3736 25.7277 10.0259L25.13 9.41657C23.9113 10.9986 20.4308 12.8502 19.7628 12.1822C19.6574 12.0767 19.6456 11.8658 19.798 11.7017C21.2159 10.2838 22.1417 8.90095 22.3527 6.65095L16.3292 0.615791C15.2159 -0.49749 13.2824 -0.134209 12.755 1.97517C12.0167 4.97517 11.3488 6.72126 10.6222 8.16267L21.2394 18.7681Z" fill="currentColor"/>
</svg>
