<svg width="28" height="28" viewBox="0 0 28 28" fill="none" xmlns="http://www.w3.org/2000/svg">
<path d="M13.9531 25.9062C20.4922 25.9062 25.9062 20.4805 25.9062 13.9531C25.9062 7.41406 20.4805 2 13.9414 2C7.41406 2 2 7.41406 2 13.9531C2 20.4805 7.42578 25.9062 13.9531 25.9062ZM13.9531 23.9141C8.42188 23.9141 4.00391 19.4844 4.00391 13.9531C4.00391 8.42188 8.41016 3.99219 13.9414 3.99219C19.4727 3.99219 23.9141 8.42188 23.9141 13.9531C23.9141 19.4844 19.4844 23.9141 13.9531 23.9141ZM13.9531 20.0703C17.3047 20.0703 20.0938 17.2812 20.0938 13.9414C20.0938 12.2656 19.3438 10.5898 18.0898 9.44141C17.2812 8.69141 16.1914 9.83984 17.0117 10.6133C17.9375 11.4688 18.4648 12.6523 18.4766 13.9414C18.4766 16.4609 16.4727 18.4648 13.9531 18.4648C11.4336 18.4648 9.44141 16.4609 9.44141 13.9414C9.44141 12.6523 9.95703 11.4688 10.8945 10.6016C11.7148 9.82812 10.625 8.67969 9.82812 9.44141C8.5625 10.5781 7.8125 12.2422 7.8125 13.9414C7.8125 17.2812 10.6016 20.0703 13.9531 20.0703ZM13.9531 14.2109C14.4102 14.2109 14.7383 13.8711 14.7383 13.4023V8.28125C14.7383 7.8125 14.4102 7.48438 13.9531 7.48438C13.4961 7.48438 13.1797 7.8125 13.1797 8.28125V13.4023C13.1797 13.8711 13.4961 14.2109 13.9531 14.2109Z" fill="currentColor"/>
</svg>
