<svg width="28" height="28" viewBox="0 0 28 28" fill="none" xmlns="http://www.w3.org/2000/svg">
<path d="M7.53906 26.6055H20.793C22.2812 26.6055 23.0312 25.9375 23.0312 24.3789V22.1289H23.8398C26.125 22.1289 27.332 20.9805 27.332 18.6953V9.15625C27.332 6.87109 26.125 5.71094 23.8398 5.71094H4.48047C2.32422 5.71094 1 6.87109 1 9.15625V18.6953C1 20.9805 2.20703 22.1289 4.48047 22.1289H5.30078V24.3789C5.30078 25.9375 6.05078 26.6055 7.53906 26.6055ZM8.125 24.8477C7.49219 24.8477 7.1875 24.543 7.1875 23.9102V15.2031C7.1875 14.582 7.50391 14.2773 8.125 14.2773H20.2188C20.8398 14.2773 21.1445 14.582 21.1445 15.2031V23.9102C21.1445 24.543 20.8398 24.8477 20.2188 24.8477H8.125ZM5.64062 4.15234H22.6914V3.95312C22.6914 2.21875 21.3438 1.44531 19.4453 1.44531H8.88672C7.07031 1.44531 5.64062 2.21875 5.64062 3.95312V4.15234ZM10.1055 18.2734H18.25C18.6602 18.2734 18.9766 17.957 18.9766 17.5352C18.9766 17.1367 18.6602 16.832 18.25 16.832H10.1055C9.67188 16.832 9.36719 17.1367 9.36719 17.5352C9.36719 17.957 9.67188 18.2734 10.1055 18.2734ZM10.1055 22.3633H18.25C18.6602 22.3633 18.9766 22.0469 18.9766 21.6484C18.9766 21.2383 18.6602 20.9219 18.25 20.9219H10.1055C9.67188 20.9219 9.36719 21.2383 9.36719 21.6484C9.36719 22.0469 9.67188 22.3633 10.1055 22.3633ZM19.8672 9.58984C19.8672 8.78125 20.5586 8.07812 21.3906 8.07812C22.1875 8.07812 22.8906 8.78125 22.8906 9.58984C22.8906 10.4219 22.1875 11.0781 21.3906 11.0898C20.5586 11.0898 19.8672 10.4336 19.8672 9.58984Z" fill="currentColor"/>
</svg>
