<svg width="28" height="29" viewBox="0 0 28 29" fill="none" xmlns="http://www.w3.org/2000/svg">
<path d="M8.93412 16.7109L16.0826 10.8632L7.77396 2.49604C6.12162 0.855419 4.36381 0.855419 2.75834 2.46089L1.19974 4.01948C-0.405726 5.62495 -0.405726 7.38276 1.2349 9.02339L8.93412 16.7109ZM8.24271 11.6953L3.59037 7.06636C3.40287 6.87886 3.41459 6.58589 3.59037 6.38667C3.77787 6.21089 4.08256 6.23433 4.24662 6.38667L8.91068 11.0507C9.09818 11.2382 9.08646 11.5195 8.91068 11.6953C8.7349 11.8828 8.43021 11.8828 8.24271 11.6953ZM9.77787 10.1835L5.13724 5.50776C4.96146 5.33198 4.94974 5.05073 5.13724 4.86323C5.30131 4.68745 5.60599 4.67573 5.79349 4.86323L10.4458 9.50386C10.6216 9.67964 10.6216 9.97261 10.4341 10.1835C10.2818 10.3476 9.95365 10.371 9.77787 10.1835ZM25.0591 27.6796L26.4302 26.3085C26.6529 26.0859 26.606 25.8046 26.4068 25.4296L24.2857 21.5273C24.0747 21.1406 23.6763 20.8828 23.2896 20.871L22.0474 20.8125L15.9654 14.7304L13.5044 17.2734L19.5513 23.3203L19.6099 24.5625C19.6216 24.9257 19.8677 25.3359 20.2661 25.5351L24.1919 27.6796C24.5435 27.8554 24.8247 27.914 25.0591 27.6796ZM1.83256 26.6601C3.87162 28.6757 6.60209 28.6992 8.60599 26.6835C11.1841 24.082 10.7154 21.1289 18.9888 12.8906L17.9693 11.8593C8.94584 20.9179 10.3169 22.6054 7.41068 25.5117C6.1099 26.8242 4.35209 26.8359 2.99271 25.5C1.64506 24.1289 1.66849 22.3828 2.95756 21.082C5.88724 18.164 7.57474 19.5468 16.6216 10.5234L15.6021 9.50386C7.36381 17.7773 4.41068 17.3085 1.80912 19.875C-0.218226 21.8789 -0.194789 24.621 1.83256 26.6601ZM16.4107 12.0703C19.0943 14.7539 23.3716 14.8476 25.9732 12.2578C28.0826 10.1484 28.4458 6.82026 26.8755 4.12495L25.7388 5.27339C26.7232 7.28901 26.3951 9.63276 24.8716 11.1679C22.8911 13.1484 19.6099 13.0546 17.5122 10.9804C15.4263 8.89448 15.3443 5.58979 17.3365 3.62104C18.8599 2.09761 21.2388 1.76948 23.1958 2.76558L24.3443 1.61714C21.6724 0.0585435 18.356 0.410106 16.2466 2.5312C13.6568 5.10933 13.7388 9.38667 16.4107 12.0703ZM19.9615 6.80854L21.6958 8.5312C22.563 9.39839 23.6763 9.42183 24.4966 8.58979L26.9576 6.11714L25.9263 5.09761L23.688 7.31245C23.3716 7.62886 22.9732 7.65229 22.6333 7.31245L21.2036 5.87104C20.8638 5.51948 20.8286 5.10933 21.1451 4.79292L23.4068 2.55464L22.3404 1.52339L19.9029 3.97261C19.0357 4.82808 19.0591 5.92964 19.9615 6.80854ZM5.1724 24.7968C5.96927 24.7968 6.62552 24.1406 6.62552 23.3437C6.62552 22.5468 5.96927 21.9023 5.1724 21.9023C4.37552 21.9023 3.73099 22.5468 3.73099 23.3437C3.73099 24.1406 4.37552 24.7968 5.1724 24.7968Z" fill="currentColor"/>
</svg>
