<svg width="36" height="28" viewBox="0 0 36 28" fill="none" xmlns="http://www.w3.org/2000/svg">
<g clip-path="url(#clip0_1899_26417)">
<path d="M7.41797 14.6875H17.168V6.54297C17.168 5.00781 16.1719 4 14.707 4H5.78906C4.3125 4 3.32812 5.00781 3.32812 6.54297V8.69922H3.65625C5.84766 8.69922 7.41797 10.2812 7.41797 12.4961V14.6875ZM18.5859 14.6875H28.3359V12.4961C28.3359 10.2812 29.918 8.69922 32.0977 8.69922H32.4258V6.54297C32.4258 5.00781 31.4414 4 29.9648 4H21.0469C19.582 4 18.5859 5.00781 18.5859 6.54297V14.6875ZM0 19.6211C0 21.0859 0.960938 22.0586 2.40234 22.0586H33.3516C34.793 22.0586 35.7539 21.0859 35.7539 19.6211V12.4961C35.7539 11.043 34.793 10.0586 33.3516 10.0586H32.0977C30.668 10.0586 29.707 11.043 29.707 12.4961V16.0469H6.05859V12.4961C6.05859 11.043 5.08594 10.0586 3.65625 10.0586H2.40234C0.960938 10.0586 0 11.043 0 12.4961V19.6211ZM4.13672 24.5664H4.875C5.50781 24.5664 5.90625 24.168 5.90625 23.5352V21.0508H3.10547V23.5352C3.10547 24.168 3.50391 24.5664 4.13672 24.5664ZM30.8789 24.5664H31.6172C32.25 24.5664 32.6484 24.168 32.6484 23.5352V21.0508H29.8477V23.5352C29.8477 24.168 30.2578 24.5664 30.8789 24.5664Z" fill="currentColor"/>
</g>
<defs>
<clipPath id="clip0_1899_26417">
<rect width="35.7539" height="20.5898" fill="white" transform="translate(0 4)"/>
</clipPath>
</defs>
</svg>
