<svg width="28" height="28" viewBox="0 0 28 28" fill="none" xmlns="http://www.w3.org/2000/svg">
<path d="M16.6328 24.6836C17.4062 24.6836 17.957 24.1328 17.957 23.3711V5.39453C17.957 4.63281 17.4062 4.01172 16.6094 4.01172C16.0586 4.01172 15.6836 4.24609 15.0977 4.82031L10.0938 9.50781C10.0234 9.57812 9.91797 9.61328 9.80078 9.61328H6.44922C4.85547 9.61328 4 10.4922 4 12.1797V16.5391C4 18.2383 4.85547 19.1055 6.44922 19.1055H9.80078C9.91797 19.1055 10.0234 19.1406 10.0938 19.2109L15.0977 23.9453C15.625 24.4609 16.082 24.6836 16.6328 24.6836ZM22.1406 19.3281C22.5273 19.5977 23.0781 19.5156 23.3945 19.0586C24.2969 17.875 24.8359 16.1289 24.8359 14.3359C24.8359 12.543 24.2969 10.8086 23.3945 9.61328C23.0781 9.15625 22.5273 9.0625 22.1406 9.34375C21.6602 9.67188 21.5898 10.2578 21.9531 10.7383C22.6328 11.6758 23.0195 12.9766 23.0195 14.3359C23.0195 15.6953 22.6211 16.9844 21.9531 17.9336C21.6016 18.4258 21.6602 18.9883 22.1406 19.3281Z" fill="currentColor"/>
</svg>
