<svg width="28" height="28" viewBox="0 0 28 28" fill="none" xmlns="http://www.w3.org/2000/svg">
<path d="M9.92423 7.54785H24.6781C25.2055 7.54785 25.6156 7.1377 25.6156 6.61035C25.6156 6.07129 25.2055 5.66113 24.6781 5.66113H9.92423C9.39688 5.66113 8.97501 6.07129 8.97501 6.61035C8.97501 7.1377 9.39688 7.54785 9.92423 7.54785ZM9.92423 14.6377H24.6781C25.2055 14.6377 25.6156 14.2158 25.6156 13.6885C25.6156 13.1611 25.2055 12.751 24.6781 12.751H9.92423C9.39688 12.751 8.97501 13.1611 8.97501 13.6885C8.97501 14.2158 9.39688 14.6377 9.92423 14.6377ZM9.92423 21.7158H24.6781C25.2055 21.7158 25.6156 21.3057 25.6156 20.7783C25.6156 20.2393 25.2055 19.8291 24.6781 19.8291H9.92423C9.39688 19.8291 8.97501 20.2393 8.97501 20.7783C8.97501 21.3057 9.39688 21.7158 9.92423 21.7158ZM3.36173 8.53223L4.36954 7.79395L5.3422 8.53223C5.69376 8.79004 6.06876 8.52051 5.93985 8.13379L5.55313 6.93848L6.53751 6.2002C6.8422 5.96582 6.72501 5.53223 6.33829 5.53223H5.10782L4.69766 4.25488C4.5922 3.91504 4.13516 3.91504 4.0297 4.25488L3.61954 5.53223H2.37735C1.99063 5.53223 1.86173 5.96582 2.17813 6.2002L3.17423 6.93848L2.78751 8.13379C2.64688 8.52051 3.02188 8.77832 3.36173 8.53223ZM3.36173 15.5986L4.36954 14.8604L5.3422 15.5986C5.69376 15.8682 6.06876 15.5869 5.93985 15.2002L5.55313 14.0049L6.53751 13.2666C6.8422 13.0322 6.72501 12.6103 6.33829 12.6103H5.10782L4.69766 11.3213C4.5922 10.9932 4.13516 10.9932 4.0297 11.3213L3.61954 12.6103H2.37735C1.99063 12.6103 1.86173 13.0322 2.17813 13.2666L3.17423 14.0049L2.78751 15.2002C2.6586 15.5869 3.02188 15.8447 3.36173 15.5986ZM3.36173 22.7002L4.36954 21.9619L5.3422 22.7002C5.69376 22.9697 6.06876 22.6885 5.93985 22.3018L5.55313 21.1064L6.53751 20.3682C6.8422 20.1338 6.72501 19.7119 6.33829 19.7119H5.10782L4.69766 18.4229C4.5922 18.0947 4.13516 18.083 4.0297 18.4229L3.61954 19.7119H2.37735C1.99063 19.7119 1.86173 20.1338 2.17813 20.3682L3.17423 21.1064L2.78751 22.3018C2.6586 22.6885 3.02188 22.9463 3.36173 22.7002Z" fill="currentColor"/>
</svg>
