<svg width="35" height="28" viewBox="0 0 35 28" fill="none" xmlns="http://www.w3.org/2000/svg">
<g clip-path="url(#clip0_1899_26397)">
<path d="M17.4609 19.6289C21.3047 19.6289 24.2695 16.6523 24.2695 12.832C24.2695 9 21.3047 6.02344 17.4609 6.02344C13.6406 6.02344 10.6758 9 10.6758 12.832C10.6758 16.6523 13.6406 19.6289 17.4609 19.6289ZM17.4609 17.6602C14.7656 17.6602 12.6328 15.5273 12.6328 12.832C12.6328 10.125 14.7656 7.99219 17.4609 7.99219C20.1797 7.99219 22.3008 10.125 22.3008 12.832C22.3008 15.5273 20.1797 17.6602 17.4609 17.6602ZM17.4609 16.6758C19.6172 16.6758 21.3164 14.9883 21.3164 12.832C21.3164 10.6758 19.6172 8.97656 17.4609 8.97656C15.3047 8.97656 13.6172 10.6758 13.6172 12.832C13.6172 14.9883 15.3047 16.6758 17.4609 16.6758ZM9.30469 12.832C9.30469 9.9375 10.7344 7.44141 12.9375 6H3.62109C1.24219 6 0 7.20703 0 9.57422V16.0664C0 18.4219 1.24219 19.6406 3.62109 19.6406H12.9023C10.7227 18.1875 9.30469 15.7031 9.30469 12.832ZM31.3242 6H22.0078C24.1992 7.44141 25.6406 9.9375 25.6406 12.832C25.6406 15.7031 24.2227 18.1875 22.0312 19.6406H31.3242C33.7266 19.6406 34.957 18.4219 34.957 16.0664V9.57422C34.957 7.20703 33.7266 6 31.3242 6ZM27.7617 10.4531C27.7617 9.97266 28.1016 9.62109 28.582 9.62109H31.5234C32.0039 9.62109 32.3555 9.97266 32.3555 10.4531C32.3555 10.9336 32.0039 11.2734 31.5234 11.2734H28.582C28.1016 11.2734 27.7617 10.9336 27.7617 10.4531ZM27.7617 13.3008C27.7617 12.8203 28.1016 12.4805 28.582 12.4805H31.5234C32.0039 12.4805 32.3555 12.8203 32.3555 13.3008C32.3555 13.7812 32.0039 14.1328 31.5234 14.1328H28.582C28.1016 14.1328 27.7617 13.7812 27.7617 13.3008ZM8.68359 18.9258H2.60156V20.6484C2.60156 21.2227 2.98828 21.6094 3.5625 21.6094H7.72266C8.30859 21.6094 8.68359 21.2227 8.68359 20.6484V18.9258ZM26.2734 18.9258V20.6484C26.2734 21.2227 26.6484 21.6094 27.2344 21.6094H31.3828C31.9688 21.6094 32.3555 21.2227 32.3555 20.6484V18.9258H26.2734Z" fill="currentColor"/>
</g>
<defs>
<clipPath id="clip0_1899_26397">
<rect width="34.957" height="15.6211" fill="white" transform="translate(0 6)"/>
</clipPath>
</defs>
</svg>
