<svg width="28" height="28" viewBox="0 0 28 28" fill="none" xmlns="http://www.w3.org/2000/svg">
<path d="M13.5547 27.9141C17.7969 27.9141 20.3516 26.8594 20.3516 25.0547C20.3516 23.4023 18.1484 22.3711 14.4453 22.2188V17.1914C19.0977 16.8633 22.1328 13.8867 22.1328 9.52734C22.1328 7.11328 21.1133 3.9375 19.6367 1.67578C18.9453 0.597656 16.707 0 13.5664 0C10.4023 0 8.17578 0.597656 7.47266 1.67578C5.99609 3.9375 5 7.11328 5 9.52734C5 13.8984 8.03516 16.8633 12.6875 17.1914V22.2188C8.97266 22.3594 6.76953 23.4023 6.76953 25.0547C6.76953 26.8594 9.3125 27.9141 13.5547 27.9141ZM13.5664 2.89453C10.8945 2.89453 9.10156 2.58984 9.10156 2.23828C9.10156 1.89844 10.9062 1.60547 13.5664 1.60547C16.2266 1.60547 18.0312 1.89844 18.0312 2.23828C18.0312 2.58984 16.2266 2.89453 13.5664 2.89453Z" fill="currentColor"/>
</svg>
